<?xml version="1.0" encoding="UTF-8" standalone="no"?>
<!-- Created with Inkscape (http://www.inkscape.org/) -->

<svg
        xmlns:inkscape="http://www.inkscape.org/namespaces/inkscape"
        xmlns:sodipodi="http://sodipodi.sourceforge.net/DTD/sodipodi-0.dtd"
        xmlns:xlink="http://www.w3.org/1999/xlink"
        width="1700.1888"
        height="2039.9677"
        viewBox="0 0 1700.1888 2039.9677"
        version="1.1"
        id="SVGRoot"
        sodipodi:docname="Studazon - Dev.svg"
        xml:space="preserve"
        inkscape:version="1.2.2 (732a01da63, 2022-12-09)"
        inkscape:export-filename="OneDrive\Pictures\Studazon - Final\Studazon - Icon Style.png"
        inkscape:export-xdpi="180.70876"
        inkscape:export-ydpi="180.70876"
        xmlns="http://www.w3.org/2000/svg"><sodipodi:namedview
     id="namedview14"
     pagecolor="#ffffff"
     bordercolor="#000000"
     borderopacity="0.25"
     inkscape:showpageshadow="2"
     inkscape:pageopacity="0.0"
     inkscape:pagecheckerboard="0"
     inkscape:deskcolor="#d1d1d1"
     inkscape:document-units="px"
     showgrid="false"
     inkscape:zoom="0.70294448"
     inkscape:cx="772.46499"
     inkscape:cy="504.30725"
     inkscape:window-width="1920"
     inkscape:window-height="986"
     inkscape:window-x="-11"
     inkscape:window-y="-11"
     inkscape:window-maximized="1"
     inkscape:current-layer="layer6" />
    <defs
            id="defs9"><linearGradient
       inkscape:collect="always"
       id="linearGradient7388"><stop
         style="stop-color:#ffffff;stop-opacity:1;"
         offset="0"
         id="stop7384" /><stop
            style="stop-color:#ffffff;stop-opacity:0;"
            offset="1"
            id="stop7386"/></linearGradient>
        <linearGradient
                inkscape:collect="always"
                id="linearGradient4924"><stop
         style="stop-color:#ffffff;stop-opacity:1;"
         offset="0"
         id="stop4920" />
            <stop
                    style="stop-color:#ffffff;stop-opacity:0;"
                    offset="1"
                    id="stop4922"/></linearGradient>
        <linearGradient
                id="linearGradient3224"
                inkscape:swatch="solid"><stop
         style="stop-color:#ffffff;stop-opacity:1;"
         offset="0"
         id="stop3222" /></linearGradient>
        <linearGradient
                id="Studazon"><stop
         style="stop-color:#caa954;stop-opacity:1;"
         offset="0"
         id="stop4031" />
            <stop
                    style="stop-color:#6fc2d9;stop-opacity:1;"
                    offset="1"
                    id="stop4033"/></linearGradient>
        <linearGradient
                id="linearGradient2051"
                inkscape:swatch="solid"><stop
         style="stop-color:#b65600;stop-opacity:1;"
         offset="0"
         id="stop2049" /></linearGradient>
        <linearGradient
                inkscape:collect="always"
                xlink:href="#Studazon"
                id="linearGradient5523"
                x1="90.374649"
                y1="583.49542"
                x2="330.12103"
                y2="210.2774"
                gradientUnits="userSpaceOnUse"/>
        <linearGradient
                inkscape:collect="always"
                xlink:href="#linearGradient4924"
                id="linearGradient4926"
                x1="961.2652"
                y1="1089.9229"
                x2="1534.1556"
                y2="1089.9229"
                gradientUnits="userSpaceOnUse"/>
        <linearGradient
                inkscape:collect="always"
                xlink:href="#linearGradient7388"
                id="linearGradient7390"
                x1="961.2652"
                y1="1089.9229"
                x2="1534.1556"
                y2="1089.9229"
                gradientUnits="userSpaceOnUse"/>
        <linearGradient
                inkscape:collect="always"
                xlink:href="#Studazon"
                id="linearGradient9261"
                gradientUnits="userSpaceOnUse"
                x1="90.374649"
                y1="583.49542"
                x2="330.12103"
                y2="210.2774"
                gradientTransform="translate(26.153953,3.0177637)"/></defs>
    <g
            inkscape:label="Logo"
            id="g21463"
            style="display:none;stroke-width:0.24945"
            transform="matrix(4.008824,0,0,4.008824,-2003.5613,-1394.1664)"><text
       xml:space="preserve"
       style="font-style:italic;font-variant:normal;font-weight:300;font-stretch:normal;font-size:73.5603px;font-family:'Segoe UI';-inkscape-font-specification:'Segoe UI Light Italic';display:inline;fill:#d7b358;fill-opacity:1;stroke-width:0.24945"
       x="474.91959"
       y="522.48346"
       id="text21445"
       inkscape:label="Tagline"><tspan
         sodipodi:role="line"
         id="tspan21443"
         x="474.91959"
         y="522.48346"
         style="font-style:italic;font-variant:normal;font-weight:300;font-stretch:normal;font-size:73.5603px;font-family:'Segoe UI';-inkscape-font-specification:'Segoe UI Light Italic';fill:#d7b358;fill-opacity:1;stroke-width:0.24945">Student book selling platform</tspan></text>
        <text
                xml:space="preserve"
                style="font-style:normal;font-variant:normal;font-weight:normal;font-stretch:normal;font-size:247.566px;line-height:0;font-family:'Segoe UI';-inkscape-font-specification:'Segoe UI';letter-spacing:7.66253px;word-spacing:0px;display:inline;fill:#6fc2d9;fill-opacity:1;stroke-width:6.71614"
                x="339.70959"
                y="429.03238"
                id="text21449"
                inkscape:label="Studazon"><tspan
         id="tspan21447"
         x="339.70959"
         y="429.03238"
         style="font-style:normal;font-variant:normal;font-weight:normal;font-stretch:normal;font-family:'Segoe UI';-inkscape-font-specification:'Segoe UI';fill:#6fc2d9;fill-opacity:1;stroke-width:6.71614"
         sodipodi:role="line"
         rotate="0 0 0 0 0 0 0 0 0"
         dx="0">Studazon</tspan></text>
        <g
                inkscape:groupmode="layer"
                id="g21457"
                inkscape:label="Cap"
                style="display:inline;stroke-width:0.24945"
                transform="translate(-37.5866,-1.3061653)"><g
         id="g21455"
         transform="matrix(0.19177763,0,0,0.19177763,301.53442,50.827754)"
         style="stroke-width:1.30072"
         inkscape:label="Cap"><path
           id="path21451"
           style="display:inline;fill:#a7750d;stroke-width:1.30072"
           d="m 1092.1723,1368.2999 v -1.0526 l 1.5057,-6.6974 1.5057,-6.6974 0.9778,-9 0.9778,-9 1.0331,-18 1.0331,-18 1.5752,-22.5 1.5753,-22.5 0.7073,-0.7491 0.7072,-0.7491 -0.4191,3.7491 -0.4191,3.7491 0.739,-0.7024 0.7391,-0.7024 1.2478,1.2478 1.2478,1.2478 -0.052,2.9546 -0.052,2.9546 1.1683,13.5 1.1683,13.5 1.0889,21.8963 1.0888,21.8963 -1.3223,0.9298 -1.3222,0.9298 1.25,0.5072 1.25,0.5073 v 0.9756 0.9757 l -1.1072,-0.6842 -1.1071,-0.6843 0.6836,2.1537 0.6835,2.1538 -2.2438,11.4715 -2.2438,11.4715 h -6.8326 -6.8326 v -1.0526 z m 9.9694,-17.4474 v -1 l -0.9694,1.5 -0.9694,1.5 v 1 1 l 0.9694,-1.5 0.9694,-1.5 z m 0.7137,-6.6875 -0.5252,-1.3125 -0.079,1.9167 -0.079,1.9166 0.6042,-0.6041 0.6041,-0.6042 -0.5252,-1.3125 z m 1.0062,-10.5625 -0.4573,-1.75 v 3.5 3.5 l 0.4573,-1.75 0.4573,-1.75 z m 5.9938,0.5625 -0.5252,-1.3125 -0.079,1.9167 -0.079,1.9166 0.6042,-0.6041 0.6041,-0.6042 -0.5252,-1.3125 z m -8.0208,-17.0625 -0.5044,-1.25 v 2.5 2.5 l 0.5044,-1.25 0.5044,-1.25 z m 3.0208,-2.9375 -0.5252,-1.3125 -0.079,1.9167 -0.079,1.9166 0.6042,-0.6041 0.6041,-0.6042 -0.5252,-1.3125 z m -0.021,-9.0625 -0.5044,-1.25 v 2.5 2.5 l 0.5044,-1.25 0.5044,-1.25 z m -2.9792,0.062 -0.5252,-1.3125 -0.079,1.9167 -0.079,1.9166 0.6042,-0.6041 0.6042,-0.6042 -0.5253,-1.3125 z m 2.0454,-15.5625 -0.3923,-3.75 v 7.5 7.5 l 0.3923,-3.75 0.3923,-3.75 z m 1.9546,2.5625 -0.5252,-1.3125 -0.079,1.9167 -0.079,1.9166 0.6042,-0.6041 0.6042,-0.6042 -0.5253,-1.3125 z m -2.9901,-19.5435 -0.461,-1.769 -0.037,3 -0.037,3 0.4981,-1.231 0.498,-1.231 -0.461,-1.769 z m 17.1078,94.0979 0.5681,-2.8669 0.6116,2.5 0.6116,2.5 0.7814,-2 0.7815,-2 1.4934,-9 1.4934,-9 0.5314,-20.5 0.5313,-20.5 -2.1857,-14.5 -2.1858,-14.5 -1.8633,-11.4316 -1.8633,-11.4315 0.493,-0.7978 0.4931,-0.7978 -1.21,-2.2707 -1.2099,-2.2706 1.728,1.4258 1.728,1.4258 -0.568,2.2629 -0.5679,2.2629 0.9765,0.6035 0.9765,0.6035 0.92,3.7078 0.92,3.7078 1.7843,8.1995 1.7842,8.1996 0.6785,-0.4193 0.6784,-0.4193 -0.5005,2.6184 -0.5006,2.6183 0.895,-0.5531 0.895,-0.5531 0.133,2.6545 0.1331,2.6545 0.7412,3.5 0.7412,3.5 0.1447,1.5 0.1446,1.5 1.1325,2 1.1325,2 0.023,0.7666 0.023,0.7667 0.6934,3.2333 0.6934,3.2334 0.5074,0.8567 0.5074,0.8568 0.7083,-1.1461 0.7083,-1.1461 0.1086,3.2893 0.1086,3.2894 -1.04,9 -1.0401,9 -1.861,8 -1.8611,8 -0.9585,7.8677 -0.9586,7.8677 -0.9953,0.9953 -0.9953,0.9954 -4.4706,0.5039 -4.4707,0.5039 0.5681,-2.867 z m 15.8615,-50.6169 -0.5044,-1.25 v 2.5 2.5 l 0.5044,-1.25 0.5044,-1.25 z m -3,-9 -0.5044,-1.25 v 2.5 2.5 l 0.5044,-1.25 0.5044,-1.25 z m -50.1623,60.25 0.618,-1 h 0.441 0.441 v 1 1 h -1.059 -1.059 z m -15.5,-2.644 -4.5,-1.5486 -0.8747,-0.8284 -0.8746,-0.8284 3.1434,-7.551 3.1435,-7.551 2.8873,-12.7743 2.8873,-12.7743 1.0877,-7.5 1.0877,-7.5 1.0046,-19.1664 1.0047,-19.1663 1.0379,-7.4622 1.0379,-7.4623 2.8603,-10.3714 2.8602,-10.3714 3.9604,-13 3.9604,-13 1.2564,-5.3069 1.2564,-5.3068 -1.7624,-1.2887 -1.7623,-1.2886 0.5864,-10.9045 0.5863,-10.9045 0.5049,-2.2486 0.5049,-2.2486 1.4661,-2.0931 1.466,-2.093 1.9952,-1.3975 1.9952,-1.3975 -0.503,2.2391 -0.5029,2.2392 -1.3812,3.1102 -1.3811,3.1102 -1.071,4.9936 -1.0709,4.9936 0.3015,6.3962 0.3015,6.3962 0.9101,-0.3396 0.9101,-0.3396 0.8896,1.5896 0.8896,1.5896 h 8.4151 8.4151 l 1.0352,-1.9343 1.0352,-1.9342 v -5.399 -5.399 l -1.1489,-5.9167 -1.1489,-5.9168 -0.7275,-1 -0.7275,-1 0.6901,-1.8945 0.6902,-1.8945 2.1208,2.6961 2.1207,2.696 0.6986,5.5913 0.6985,5.5912 -0.5886,7.0207 -0.5885,7.0207 -0.8905,0.5865 -0.8906,0.5865 -0.7226,2.9478 -0.7227,2.9479 -0.916,-1.4479 -0.916,-1.4478 -0.031,1.5 -0.031,1.5 -0.8465,-1.3354 -0.8465,-1.3354 -0.6786,-0.1646 -0.6787,-0.1646 -1.8593,3 -1.8593,3 -4.2054,12.5 -4.2055,12.5 -0.5403,5.8235 -0.5404,5.8235 -0.8391,-1.3235 -0.8391,-1.3235 -0.1573,9.5 -0.1572,9.5 -0.6517,-4 -0.6517,-4 -0.8178,6.5 -0.8177,6.5 -0.8121,1.0102 -0.812,1.0102 -1.1504,10.4548 -1.1504,10.4547 -0.4711,0.7622 -0.471,0.7621 -1.3884,8.7729 -1.3883,8.7729 -1.1517,10 -1.1517,10 -1.4518,6.3142 -1.4518,6.3141 0.2123,3.6859 0.2123,3.6858 -1.2655,2.3522 -1.2655,2.3523 0.4963,1.8977 0.4963,1.8978 h -0.6993 -0.6993 l -1.8737,5.5125 -1.8738,5.5125 v 1.4875 1.4875 l -1.5833,-0.048 -1.5834,-0.048 -4.5,-1.5486 z m 16.9297,-55.2727 0.07,-2.4166 -0.3673,0.4166 -0.3674,0.4167 -0.609,4 -0.6091,4 0.9061,-2 0.9061,-2 0.07,-2.4167 z m 0.776,-10.3333 -0.4333,-2.25 v 4.5 4.5 l 0.4333,-2.25 0.4334,-2.25 z m 4.696,-28.2167 0.6984,-6.9668 -0.4546,0.4668 -0.4547,0.4667 -1.5954,10.7803 -1.5954,10.7802 0.1025,3.2198 0.1025,3.2197 1.2491,-7.5 1.2491,-7.5 z m -2.7186,-8.7208 -0.5252,-1.3125 -0.079,1.9167 -0.079,1.9166 0.6042,-0.6041 0.6041,-0.6042 -0.5252,-1.3125 z m 0.4508,-10.0625 -0.5197,-3.25 -0.3917,1.8084 -0.3916,1.8084 0.5531,1.4416 0.5532,1.4416 h 0.3582 0.3582 z m 1.1828,-8.75 0.595,-4.5 -0.8856,2 -0.8855,2 -0.07,2.9167 -0.07,2.9166 0.3608,-0.4166 0.3609,-0.4167 0.595,-4.5 z m 3.9252,-3.4852 0.4808,-2.5148 h -0.8614 -0.8613 v 1.4182 1.4182 l -0.6699,1.7458 -0.67,1.7459 1.0506,-0.6493 1.0505,-0.6493 z m 1.6012,-8.3855 1.1597,-3.8708 0.5947,-4.8792 0.5947,-4.8793 1.5608,-4.3052 1.5608,-4.3051 0.8278,1.3051 0.8278,1.3052 0.092,-1 0.092,-1 0.3168,-1.6264 0.3169,-1.6263 0.6721,-2.3737 0.6722,-2.3736 -1.1464,1.5 -1.1464,1.5 0.5472,-2.5398 0.5471,-2.5397 -1.7926,-0.135 -1.7926,-0.1351 -1.1737,3.2458 -1.1736,3.2458 0.026,0.929 0.026,0.929 1.8928,-4 1.8929,-4 0.081,0.5934 0.081,0.5935 -1.856,5.4065 -1.8561,5.4066 -1.8447,10.5 -1.8447,10.5 -0.7857,-2.5 -0.7857,-2.5 0.4714,3.2997 0.4714,3.2997 -0.9849,-0.6087 -0.985,-0.6087 v 1.059 1.059 h 1.3418 1.3417 l 1.1597,-3.8707 z m 9.1985,-16.5864 1.8776,-5.9571 -0.344,-0.3439 -0.344,-0.344 -1.2682,3.301 -1.2682,3.3011 -1.8327,5.5 -1.8326,5.5 0.024,1 0.024,1 1.5429,-3.5 1.5429,-3.5 1.8775,-5.9571 z m 5.923,-14.9929 0.035,-0.95 -0.8876,0.95 -0.8876,0.95 -0.6541,2.5 -0.6541,2.5 1.5062,-2.5 1.5063,-2.5 0.035,-0.95 z m -16.8856,154.8667 0.079,-1.9167 0.5252,1.3125 0.5252,1.3125 -0.6042,0.6042 -0.6041,0.6041 0.079,-1.9166 z m 1.0789,-6.4167 v -2.5 l 0.5044,1.25 0.5044,1.25 -0.5044,1.25 -0.5044,1.25 z m 18,-24 v -2.5 l 0.5044,1.25 0.5044,1.25 -0.5044,1.25 -0.5044,1.25 z m -23.9259,-8 v -3.5 l 0.4573,1.75 0.4573,1.75 -0.4573,1.75 -0.4573,1.75 z m 23.963,-0.5 0.037,-3 0.4609,1.769 0.461,1.769 -0.498,1.231 -0.4981,1.231 0.037,-3 z m -14.909,-4 0.014,-5 0.4179,2.7637 0.418,2.7638 -0.4316,2.2362 -0.4316,2.2363 z m -7.286,-8.941 v -2.441 l 0.8191,-0.5062 0.819,-0.5062 -0.4325,2.9472 -0.4326,2.9472 h -0.3865 -0.3865 z m 47.842,-3.1425 0.342,-5.3971 -1.1828,-7.0126 -1.1829,-7.0126 -0.7842,0.4847 -0.7843,0.4847 -0.777,-4.2318 -0.7771,-4.2318 -0.1624,-0.5 -0.1625,-0.5 -1.3192,-4.5 -1.3193,-4.5 -6.4519,-20.5 -6.4519,-20.5 -1.3969,-6.5 -1.3969,-6.5 -0.017,-3.75 -0.017,-3.75 h 0.75 0.75 l 0.1683,5.7474 0.1683,5.7473 2.5726,7.6492 2.5726,7.6492 0.3167,2.075 0.3166,2.0751 0.6925,0.6924 0.6924,0.6925 v 1.8399 1.84 l 2.4074,2.0932 2.4075,2.0933 0.6718,3.5809 0.6718,3.581 0.7816,-1.2647 0.7816,-1.2647 0.6277,1.6358 0.6277,1.6358 -1.0955,-0.677 -1.0955,-0.6771 0.5734,3.3751 0.5734,3.3751 -2.3485,-6.9606 -2.3484,-6.9607 -1.0112,-0.3371 -1.0112,-0.337 2.4251,6.7977 2.4251,6.7977 0.6609,1.5 0.661,1.5 0.1918,1 0.1918,1 0.1154,3.309 0.1153,3.3091 0.9243,-0.5713 0.9243,-0.5713 0.3662,1.7623 0.3661,1.7622 0.6163,-2.2513 0.6163,-2.2514 -1.0767,0.6654 -1.0767,0.6654 0.6585,-1.716 0.6585,-1.7159 -0.8801,0.5439 -0.8801,0.5439 -0.3882,-3.3253 -0.3882,-3.3253 h 1.2358 1.2357 l -0.5421,0.8771 -0.5421,0.8771 0.9777,1.2062 0.9777,1.2062 1.0326,5.5 1.0326,5.5 -0.057,1.5 -0.057,1.5 1.1324,5.9337 1.1323,5.9337 v 9.2573 9.2573 l -0.75,0.4658 -0.75,0.4659 0.342,-5.3971 z m -39.5603,-10.9165 -0.048,-12 0.7307,-6.5 0.7306,-6.5 0.035,8.5 0.035,8.5 -0.7177,10 -0.7177,10 -0.048,-12 z m 21.9133,-19 0.037,-3 0.4609,1.769 0.461,1.769 -0.498,1.231 -0.4981,1.231 0.037,-3 z m -0.5715,-5.0387 -0.6235,-1.6249 0.1024,-2.1682 0.1023,-2.1682 0.8211,3.4932 0.8211,3.4932 -0.2999,0.2999 -0.2999,0.2999 z m -23.4656,-1.4613 v -2.5 l 0.5044,1.25 0.5044,1.25 -0.5044,1.25 -0.5044,1.25 z m 4.0943,-3.5 0.02,-4 0.4349,2.2616 0.4349,2.2617 -0.4551,1.7383 -0.4551,1.7384 0.02,-4 z m 91.9978,2.8107 1.75,-0.4574 1.75,0.4574 1.75,0.4573 h -3.5 -3.5 z m -82.171,-1.894 0.079,-1.9167 0.5252,1.3125 0.5252,1.3125 -0.6042,0.6042 -0.6041,0.6041 0.079,-1.9166 z m -14,-2 0.079,-1.9167 0.5252,1.3125 0.5252,1.3125 -0.6042,0.6042 -0.6041,0.6041 0.079,-1.9166 z m 10.116,-2.9167 0.037,-3 0.4609,1.769 0.461,1.769 -0.498,1.231 -0.4981,1.231 0.037,-3 z m 3.0572,-1 0.02,-4 0.4349,2.2616 0.4349,2.2617 -0.4551,1.7383 -0.4551,1.7384 0.02,-4 z m 7.4012,-6.4277 -1.8466,-10.2124 0.4656,-0.4656 0.4656,-0.4657 1.7296,8.9045 1.7296,8.9046 -0.3486,1.7735 -0.3486,1.7735 z m 66.327,5.7458 -0.02,-1.3181 -4.3482,-10.6125 -4.3482,-10.6125 2.6178,-1.5464 2.6178,-1.5463 1,-0.1745 1,-0.1745 0.5,-0.577 0.5,-0.577 -1.5,0.8523 -1.5,0.8523 1.3633,-1.681 1.3633,-1.6809 0.8867,0.548 0.8867,0.548 v -1.0006 -1.0005 l 6.25,-4.6481 6.25,-4.648 -2.8058,2.5896 -2.8058,2.5896 1.3058,-0.022 1.3058,-0.022 2.4824,-1.9074 2.4823,-1.9073 1.1786,0.9781 1.1786,0.9782 0.6481,-1.0486 0.648,-1.0485 h 1.141 1.141 l -1.2,1.1999 -1.2,1.2001 v 2.1775 2.1776 l 1.4946,1.2404 1.4947,1.2405 2.0067,-0.5248 2.0067,-0.5247 -0.5604,0.9067 -0.5604,0.9068 h -2.3185 -2.3185 l -1.2449,-1.5 -1.2449,-1.5 h -1.6054 -1.6054 l 3.7291,3.0738 3.7291,3.0738 -0.5289,3.0023 -0.529,3.0023 1.2777,-0.6699 1.2777,-0.6699 -4.2552,3.681 -4.2551,3.6809 0.4941,0.7995 0.4942,0.7995 -1.681,1.3633 -1.6809,1.3634 0.7509,-1.25 0.751,-1.25 h -0.8847 -0.8847 l -2.4243,2.7428 -2.4243,2.7428 2.055,-1.4928 2.055,-1.4928 -3.055,2.823 -3.055,2.8231 -2.75,1.995 -2.75,1.995 -0.02,-1.3181 z m 5.5196,-3.8181 1.81,-2 h -0.5 -0.5 l -1.81,2 -1.81,2 h 0.5 0.5 z m 14.9929,-16.9886 0.611,-0.9885 -1.552,0.5955 -1.5519,0.5956 v 0.393 0.393 h 0.941 0.941 z m -2.7109,-4.5471 -2.1427,-2.4643 h -0.2731 -0.2732 l 1.6765,2.9212 1.6766,2.9211 0.7393,-0.4569 0.7392,-0.4569 z m -9.7728,-5.9586 0.9679,0.5982 -0.5811,-1.5144 -0.5811,-1.5143 -2.4075,1.5774 -2.4074,1.5774 v 0.4202 0.4202 l 2.0207,-1.0815 2.0206,-1.0814 z m 7.9374,-4.8619 -1.241,-1.1438 0.6472,1.8318 0.6472,1.8318 0.116,1.1682 0.116,1.1682 0.4778,-1.8562 0.4778,-1.8563 z m -66.8676,34.7729 0.079,-1.9167 0.5252,1.3125 0.5252,1.3125 -0.6042,0.6042 -0.6041,0.6041 0.079,-1.9166 z m -30.9211,-1.4167 v -2.5 l 0.5044,1.25 0.5044,1.25 -0.5044,1.25 -0.5044,1.25 z m 7,-4 v -2.5 l 0.5044,1.25 0.5044,1.25 -0.5044,1.25 -0.5044,1.25 z m -2.0789,-8.5833 0.079,-1.9167 0.5252,1.3125 0.5252,1.3125 -0.6042,0.6042 -0.6041,0.6041 0.079,-1.9166 z m 2.5877,0.9166 -0.6667,-0.6666 0.058,-5.5834 0.058,-5.5833 0.784,-4 0.784,-4 -0.092,10.2444 -0.092,10.2444 -0.083,0.01 -0.083,0.01 -0.6666,-0.6667 z m 95.3333,-0.7109 v -0.3775 l 1.75,-1.3725 1.75,-1.3724 -1.3724,1.75 -1.3725,1.75 h -0.3775 -0.3776 z m -77.921,-4.2057 0.079,-1.9167 0.5252,1.3125 0.5252,1.3125 -0.6042,0.6042 -0.6041,0.6041 0.079,-1.9166 z m -15.9211,-2.4167 v -2.5 l 0.5044,1.25 0.5044,1.25 -0.5044,1.25 -0.5044,1.25 z m 13.4656,0.4613 -0.6235,-1.6249 0.03,-0.6682 0.03,-0.6682 1.0612,1.825 1.0613,1.825 -0.4681,0.4681 -0.4681,0.4681 -0.6236,-1.6249 z m -18.4285,-3.9613 0.037,-3 0.4609,1.769 0.461,1.769 -0.498,1.231 -0.4981,1.231 0.037,-3 z m 103.805,-0.3834 v -0.8834 l 2.0571,-0.5379 2.0572,-0.538 -1.1796,1.4213 -1.1796,1.4214 h -0.8775 -0.8776 z m -87.921,-3.6999 0.079,-1.9167 0.5252,1.3125 0.5252,1.3125 -0.6042,0.6042 -0.6041,0.6041 0.079,-1.9166 z m -14.909,-1.4167 0.029,-1.5 0.8006,-2.5 0.8006,-2.5 0.029,2 0.029,2 -0.8594,2 -0.8594,2 0.029,-1.5 z m 13.4535,-2.5387 -0.6235,-1.6249 0.086,-1.6682 0.086,-1.6682 0.881,2.9497 0.881,2.9498 -0.3434,0.3433 -0.3434,0.3434 -0.6236,-1.6249 z m -1.9516,-8.3519 -0.6719,-3.3594 0.1096,-2.125 0.1095,-2.125 0.8856,4.5 0.8855,4.5 -0.3232,0.9844 -0.3232,0.9843 z m 79.3281,2.513 v -0.3775 l 1.75,-1.3725 1.75,-1.3724 -1.3724,1.75 -1.3725,1.75 h -0.3775 -0.3776 z m 4,-3 v -0.3775 l 1.75,-1.3725 1.75,-1.3724 -1.3724,1.75 -1.3725,1.75 h -0.3775 -0.3776 z m 79.8125,-10.3055 1.3125,-0.5252 0.6042,0.6041 0.6041,0.6042 -1.9166,-0.079 -1.9167,-0.079 1.3125,-0.5252 z m 45.1875,-15.6945 v -0.3775 l 1.75,-1.3725 1.75,-1.3724 -1.3724,1.75 -1.3725,1.75 h -0.3775 -0.3776 z m -47.1875,-9.3055 1.3125,-0.5252 0.6042,0.6041 0.6041,0.6042 -1.9166,-0.079 -1.9167,-0.079 1.3125,-0.5252 z m 61.1875,-3.8169 3.3923,-3.5 h 0.5 0.5 l -3.3923,3.5 -3.3923,3.5 h -0.5 -0.5 z m -29,-6.8129 v -0.3129 l 3.25,-2.9371 3.25,-2.9371 -2.9371,3.25 -2.9371,3.25 h -0.3129 -0.3129 z m -196.4929,-4.6757 -0.611,-0.9885 1.552,0.5955 1.5519,0.5956 v 0.393 0.393 h -0.941 -0.941 z m -7.2211,-7.5114 0.014,-5 0.4179,2.7637 0.418,2.7638 -0.4316,2.2362 -0.4316,2.2363 z m -3.0338,-1 0.02,-4 0.4349,2.2616 0.4349,2.2617 -0.4551,1.7383 -0.4551,1.7384 0.02,-4 z m 222.7478,-2 2.3486,-2.5 h 0.5 0.5 l -2.3486,2.5 -2.3486,2.5 h -0.5 -0.5 z m 108,-1.8776 v -0.3775 l 1.75,-1.3725 1.75,-1.3724 -1.3724,1.75 -1.3725,1.75 h -0.3775 -0.3776 z m -103,-2 v -0.3775 l 1.75,-1.3725 1.75,-1.3724 -1.3724,1.75 -1.3725,1.75 h -0.3775 -0.3776 z m -225.714,-11.1224 0.014,-5 0.4179,2.7637 0.418,2.7638 -0.4316,2.2362 -0.4316,2.2363 z m -3.054,-0.5 v -3.5 l 0.4573,1.75 0.4573,1.75 -0.4573,1.75 -0.4573,1.75 z m 317.518,-2.6623 1.25,-0.5044 1.25,0.5044 1.25,0.5044 h -2.5 -2.5 z m 1.75,-1.1227 -5,-0.4244 2,-0.825 2,-0.825 -1.625,-0.07 -1.625,-0.07 -0.6133,-3.0662 -0.6132,-3.0663 -0.907,0.5605 -0.9069,0.5606 -0.6048,-1.5761 -0.6048,-1.576 v -1.8468 -1.8468 l -1.2738,-1.3214 -1.2738,-1.3215 0.057,-1.5 0.057,-1.5 -1.0335,-0.8341 -1.0334,-0.8342 3.5,0.5828 3.5,0.5828 -1.5,-0.9833 -1.5,-0.9833 2.5,-0.086 2.5,-0.086 -2,-0.9103 -2,-0.9103 5,0.4885 5,0.4885 -2,-1.0186 -2,-1.0187 3.6573,0.5386 3.6574,0.5387 0.3426,-1.0028 0.3427,-1.0027 7.6509,12.9268 7.6511,12.9269 -6.1078,-0.3889 -6.1078,-0.3888 1.4568,0.9215 1.4568,0.9215 -3.5,-0.1649 -3.5,-0.1649 -5,-0.4245 z m 7.75,-0.8773 -1.25,-0.5044 -1.25,0.5044 -1.25,0.5044 h 2.5 2.5 z m -324.8646,-21.3377 v -12.5 l 0.355,6.25 0.355,6.25 -0.355,6.25 -0.355,6.25 z m -3.0202,-0.5 0.01,-10 0.3685,5.2835 0.3684,5.2835 -0.3732,4.7165 -0.3731,4.7165 v -10 z m 302.4473,0.8169 1.3125,-0.5252 0.6042,0.6041 0.6041,0.6042 -1.9166,-0.079 -1.9167,-0.079 1.3125,-0.5252 z m 5,-1 1.3125,-0.5252 0.6042,0.6041 0.6041,0.6042 -1.9166,-0.079 -1.9167,-0.079 1.3125,-0.5252 z m -300.8125,-25.2579 v -0.941 l 0.9886,-0.6109 0.9885,-0.611 -0.5955,1.5519 -0.5956,1.552 h -0.393 -0.393 z m -4.3869,-1.242 0.5251,-0.8496 0.9309,0.5753 0.9309,0.5753 v 0.2743 0.2743 h -1.456 -1.456 z m 11.8869,-8.817 1.81,-2 h 0.5 0.5 l -1.81,2 -1.81,2 h -0.5 -0.5 z m -10.7262,296.1167 0.9586,-0.6162 2.2184,-11.1963 2.2183,-11.1962 -0.6916,-2.179 -0.6916,-2.179 1.1072,0.6843 1.1071,0.6842 v -0.9757 -0.9756 l -1.25,-0.5073 -1.25,-0.5072 1.3223,-0.9298 1.3222,-0.9298 -1.0888,-21.8963 -1.0888,-21.8963 -1.1684,-13.5 -1.1683,-13.5 0.052,-2.9546 0.052,-2.9546 -1.2478,-1.2478 -1.2478,-1.2478 -0.739,0.7024 -0.7391,0.7024 0.4191,-3.7491 0.4191,-3.7491 -0.7072,0.7491 -0.7072,0.7491 -1.5753,22.5 -1.5753,22.5 -1.0331,18 -1.0331,18 -0.9916,9 -0.9916,9 -1.6622,7.75 -1.6622,7.75 h -3.3611 -3.361 l -0.5854,-1.5255 -0.5854,-1.5256 -1.3487,1.1193 -1.3486,1.1193 -4.1656,-0.7038 -4.1655,-0.7038 0.8809,-0.6399 0.8811,-0.64 0.2531,-1.5 0.2531,-1.5 1.704,-5.25 1.704,-5.25 h 0.6993 0.6993 l -0.4963,-1.8978 -0.4963,-1.8977 1.2655,-2.3523 1.2655,-2.3522 -0.2123,-3.6858 -0.2124,-3.6859 1.4519,-6.3141 1.4518,-6.3142 1.1517,-10 1.1517,-10 1.3883,-8.7729 1.3883,-8.7729 0.4711,-0.7621 0.471,-0.7622 1.1504,-10.4547 1.1504,-10.4548 0.8121,-1.0102 0.812,-1.0102 0.8178,-6.5 0.8178,-6.5 0.6517,4 0.6517,4 0.1572,-9.5 0.1572,-9.5 0.8392,1.3235 0.8391,1.3235 0.5403,-5.8235 0.5404,-5.8235 4.2054,-12.5 4.2055,-12.5 1.6497,-2.5 1.6498,-2.5 1.25,-0.25 1.25,-0.25 0.015,1.25 0.015,1.25 0.9694,-1.5 0.9694,-1.5 0.015,1.4411 0.015,1.4411 1.4682,-1.9411 1.4682,-1.9411 0.032,0.8447 0.032,0.8447 3.9961,17.6553 3.9961,17.6553 2.4657,7.9781 2.4657,7.9781 -0.5427,2.5219 -0.5427,2.5219 1.1346,-1.5 1.1347,-1.5 -0.3632,2 -0.3631,2 -0.9817,-0.1804 -0.9817,-0.1803 0.3996,3.4223 0.3995,3.4223 0.8801,-0.5439 0.8801,-0.5439 -0.6585,1.716 -0.6585,1.716 1.1699,-0.7231 1.17,-0.723 0.079,-1.691 0.079,-1.691 0.4486,1.0826 0.4486,1.0826 -1.5214,2.9174 -1.5214,2.9174 -0.01,-1.809 -0.01,-1.809 -1,0.618 -1,0.618 -0.1154,-3.309 -0.1153,-3.309 -0.1918,-1 -0.1918,-1 -0.661,-1.5 -0.6609,-1.5 -2.4251,-6.7978 -2.4251,-6.7977 1.0112,0.3371 1.0112,0.337 2.3484,6.9607 2.3485,6.9607 -0.5734,-3.3751 -0.5734,-3.3751 1.0955,0.677 1.0955,0.6771 -0.6277,-1.6358 -0.6277,-1.6358 -0.7816,1.2647 -0.7816,1.2646 -0.6718,-3.5809 -0.6718,-3.581 -2.4075,-2.0932 -2.4074,-2.0933 v -1.8399 -1.84 l -0.6925,-0.6924 -0.6924,-0.6925 -0.3167,-2.075 -0.3166,-2.0751 -2.5726,-7.6491 -2.5726,-7.6492 -0.1683,-5.7474 -0.1683,-5.7474 h -0.75 -0.7502 l 0.017,3.75 0.017,3.75 1.3969,6.5 1.3968,6.5 6.452,20.5 6.4519,20.5 1.3193,4.5 1.3192,4.5 0.1624,0.5 0.1625,0.5 0.777,4.2318 0.7771,4.2318 0.7842,-0.4847 0.7843,-0.4847 1.1828,7.0126 1.1828,7.0126 -0.3419,5.4433 -0.342,5.4434 0.6927,-0.7031 0.6927,-0.703 0.3723,-5.5 0.3723,-5.5 0.185,10.75 0.1849,10.75 h -1.0674 -1.0674 l 0.6329,-2.25 0.6329,-2.25 -0.9405,1.3567 -0.9405,1.3568 -0.5074,-0.8568 -0.5074,-0.8567 -0.6934,-3.2334 -0.6934,-3.2333 -0.023,-0.7667 -0.023,-0.7666 -1.1325,-2 -1.1325,-2 -0.1446,-1.5 -0.1447,-1.5 -0.7412,-3.5 -0.7412,-3.5 -0.133,-2.6545 -0.1331,-2.6545 -0.895,0.5531 -0.895,0.5531 0.5006,-2.6183 0.5005,-2.6184 -0.6784,0.4193 -0.6784,0.4193 -1.7843,-8.1996 -1.7843,-8.1995 -0.92,-3.7078 -0.92,-3.7078 -0.9765,-0.6035 -0.9765,-0.6035 0.5679,-2.2629 0.568,-2.2629 -1.728,-1.4258 -1.728,-1.4258 1.2099,2.2706 1.21,2.2707 -0.493,0.7978 -0.4931,0.7978 1.8633,11.4315 1.8633,11.4316 2.1858,14.5 2.1858,14.5 -0.5314,20.5 -0.5314,20.5 -1.5185,9.2452 -1.5186,9.2452 -1.0219,1.7548 -1.022,1.7548 -0.03,-2.4167 -0.03,-2.4166 -0.4971,0.4971 -0.4972,0.4972 -0.2238,2.7037 -0.2237,2.7037 -7.8716,-0.168 -7.8716,-0.168 0.9586,-0.6162 z m -12.0905,-15.3037 -0.5252,-1.3125 -0.079,1.9167 -0.079,1.9166 0.6042,-0.6041 0.6041,-0.6042 -0.5252,-1.3125 z m 0.9792,-7.0625 -0.5044,-1.25 v 2.5 2.5 l 0.5044,-1.25 0.5044,-1.25 z m 18,-24 -0.5044,-1.25 v 2.5 2.5 l 0.5044,-1.25 0.5044,-1.25 z m -23.973,-8.5 -0.4573,-1.75 v 3.5 3.5 l 0.4573,-1.75 0.4573,-1.75 z m 24.0037,0.019 -0.461,-1.769 -0.037,3 -0.037,3 0.4981,-1.231 0.498,-1.231 -0.461,-1.769 z m -14.9754,-5.0053 -0.4179,-2.7638 -0.014,5 -0.014,5 0.4315,-2.2362 0.4316,-2.2362 z m -6.512,-7.2109 0.4325,-2.9472 -0.819,0.5062 -0.8191,0.5062 v 2.441 2.4409 h 0.3865 0.3865 z m 8.5245,-30.0528 -0.035,-8.5 -0.7307,6.5 -0.7306,6.5 0.048,12 0.048,12 0.7177,-10 0.7177,-10 -0.035,-8.5 z m 20.9629,-3.731 -0.461,-1.769 -0.037,3 -0.037,3 0.4981,-1.231 0.498,-1.231 -0.461,-1.769 z m -0.6672,-6.2758 -0.8211,-3.4932 -0.1023,2.1682 -0.1024,2.1682 0.6235,1.6249 0.6236,1.6249 0.2999,-0.2999 0.2999,-0.2999 z m -23.3635,-0.2432 -0.5044,-1.25 v 2.5 2.5 l 0.5044,-1.25 0.5044,-1.25 z m 4.045,-3.9884 -0.4349,-2.2616 -0.02,4 -0.02,4 0.455,-1.7384 0.4551,-1.7383 -0.4349,-2.2617 z m 9.9758,2.0509 -0.5252,-1.3125 -0.079,1.9167 -0.079,1.9166 0.6042,-0.6041 0.6041,-0.6042 -0.5252,-1.3125 z m -14,-2 -0.5252,-1.3125 -0.079,1.9167 -0.079,1.9166 0.6042,-0.6041 0.6041,-0.6042 -0.5252,-1.3125 z m 10.0099,-3.5435 -0.461,-1.769 -0.037,3 -0.037,3 0.4981,-1.231 0.498,-1.231 -0.461,-1.769 z m 3.0143,-1.5074 -0.4349,-2.2616 -0.02,4 -0.02,4 0.455,-1.7384 0.4551,-1.7383 -0.4349,-2.2617 z m 7.7603,-6.9285 -1.7296,-8.9045 -0.4656,0.4657 -0.4656,0.4656 1.8466,10.2124 1.8466,10.2124 0.3486,-1.7735 0.3486,-1.7735 z m -15.8053,3.9169 -0.5044,-1.25 v 2.5 2.5 l 0.5044,-1.25 0.5044,-1.25 z m 7,-4 -0.5044,-1.25 v 2.5 2.5 l 0.5044,-1.25 0.5044,-1.25 z m -1.9792,-7.9375 -0.5252,-1.3125 -0.079,1.9167 -0.079,1.9166 0.6042,-0.6041 0.6041,-0.6042 -0.5252,-1.3125 z m 2.9086,-8.0681 0.092,-10.2444 -0.7841,4 -0.784,4 -0.058,5.5833 -0.058,5.5834 0.6667,0.6666 0.6667,0.6667 0.083,-0.01 0.083,-0.01 0.092,-10.2444 z m 17.0914,4.0681 -0.5252,-1.3125 -0.079,1.9167 -0.079,1.9166 0.6042,-0.6041 0.6041,-0.6042 -0.5252,-1.3125 z m -16.0208,-3.0625 -0.5044,-1.25 v 2.5 2.5 l 0.5044,-1.25 0.5044,-1.25 z m 13.4598,0.575 -1.0613,-1.825 -0.03,0.6682 -0.03,0.6682 0.6236,1.6249 0.6235,1.6249 0.4681,-0.4681 0.4682,-0.4681 -1.0613,-1.825 z m -18.4291,-4.056 -0.461,-1.769 -0.037,3 -0.037,3 0.4981,-1.231 0.498,-1.231 -0.461,-1.769 z m 15.9901,-3.4565 -0.5252,-1.3125 -0.079,1.9167 -0.079,1.9166 0.6042,-0.6041 0.6041,-0.6042 -0.5252,-1.3125 z m -13.8531,-5.3125 -0.029,-2 -0.8006,2.5 -0.8006,2.5 -0.029,1.5 -0.029,1.5 0.8594,-2 0.8594,-2 -0.029,-2 z m 12.2229,-0.05 -0.881,-2.9497 -0.086,1.6682 -0.086,1.6682 0.6236,1.6249 0.6235,1.6249 0.3434,-0.3434 0.3434,-0.3434 -0.881,-2.9497 z m -1.9482,-9.4497 -0.8856,-4.5 -0.1095,2.125 -0.1096,2.125 0.6719,3.3594 0.6719,3.3593 0.3232,-0.9843 0.3232,-0.9844 z m 14.0903,148.5 0.037,-3 0.4609,1.769 0.461,1.769 -0.498,1.231 -0.4981,1.231 0.037,-3 z m -31.1644,-4 v -1 l 0.9694,-1.5 0.9694,-1.5 v 1 1 l -0.9694,1.5 -0.9694,1.5 z m 32.0484,-3.0833 0.079,-1.9167 0.5252,1.3125 0.5252,1.3125 -0.6042,0.6042 -0.6041,0.6041 0.079,-1.9166 z m 1,-5 0.079,-1.9167 0.5252,1.3125 0.5252,1.3125 -0.6042,0.6042 -0.6041,0.6041 0.079,-1.9166 z m -31,-1 0.079,-1.9167 0.5252,1.3125 0.5252,1.3125 -0.6042,0.6042 -0.6041,0.6041 0.079,-1.9166 z m 1.153,-9.4167 v -3.5 l 0.4573,1.75 0.4573,1.75 -0.4573,1.75 -0.4573,1.75 z m 5.847,-0.5833 0.079,-1.9167 0.5252,1.3125 0.5252,1.3125 -0.6042,0.6042 -0.6041,0.6041 0.079,-1.9166 z m 27,-4 0.079,-1.9167 0.5252,1.3125 0.5252,1.3125 -0.6042,0.6042 -0.6041,0.6041 0.079,-1.9166 z m 1.0789,-7.4167 v -2.5 l 0.5044,1.25 0.5044,1.25 -0.5044,1.25 -0.5044,1.25 z m -36,-5 v -2.5 l 0.5044,1.25 0.5044,1.25 -0.5044,1.25 -0.5044,1.25 z m 34,-1 v -2.5 l 0.5044,1.25 0.5044,1.25 -0.5044,1.25 -0.5044,1.25 z m -31.0789,-2.5833 0.079,-1.9167 0.5252,1.3125 0.5252,1.3125 -0.6042,0.6042 -0.6041,0.6041 0.079,-1.9166 z m -21.4227,-2.9167 0.609,-4 0.3674,-0.4167 0.3673,-0.4166 -0.07,2.4166 -0.07,2.4167 -0.9061,2 -0.9061,2 0.609,-4 z m 49.5016,-3.5 v -2.5 l 0.5044,1.25 0.5044,1.25 -0.5044,1.25 -0.5044,1.25 z m -58.0789,-0.5833 0.079,-1.9167 0.5252,1.3125 0.5252,1.3125 -0.6042,0.6042 -0.6041,0.6041 0.079,-1.9166 z m 30.0789,-1.4167 v -2.5 l 0.5044,1.25 0.5044,1.25 -0.5044,1.25 -0.5044,1.25 z m -3.0789,-0.5833 0.079,-1.9167 0.5252,1.3125 0.5252,1.3125 -0.6042,0.6042 -0.6041,0.6041 0.079,-1.9166 z m -16.8066,-4.4167 v -4.5 l 0.4333,2.25 0.4334,2.25 -0.4334,2.25 -0.4333,2.25 z m 19.0638,-8 v -7.5 l 0.3923,3.75 0.3922,3.75 -0.3922,3.75 -0.3923,3.75 z m -28.0638,-1 v -4.5 l 0.4333,2.25 0.4334,2.25 -0.4334,2.25 -0.4333,2.25 z m 29.8066,0.4167 0.079,-1.9167 0.5252,1.3125 0.5252,1.3125 -0.6042,0.6042 -0.6041,0.6041 0.079,-1.9166 z m -18.9765,-3.1364 -0.1025,-3.2198 1.5954,-10.7802 1.5954,-10.7803 0.4547,-0.4667 0.4546,-0.4668 -0.6984,6.9668 -0.6985,6.9667 -1.2491,7.5 -1.2491,7.5 z m 50.9765,-7.8636 0.079,-1.9167 0.5252,1.3125 0.5252,1.3125 -0.6042,0.6042 -0.6041,0.6041 0.079,-1.9166 z m -1.3238,-6.9167 -0.4779,-2.5 h 0.8614 0.8613 v 2.5 2.5 h -0.3834 -0.3834 z m -33.5602,-1 0.037,-3 0.4609,1.769 0.461,1.769 -0.498,1.231 -0.4981,1.231 0.037,-3 z m -26,-1 0.037,-3 0.4609,1.769 0.461,1.769 -0.498,1.231 -0.4981,1.231 0.037,-3 z m 58.884,-6.0833 0.079,-1.9167 0.5252,1.3125 0.5252,1.3125 -0.6042,0.6042 -0.6041,0.6041 0.079,-1.9166 z m -58,-4 0.079,-1.9167 0.5252,1.3125 0.5252,1.3125 -0.6042,0.6042 -0.6041,0.6041 0.079,-1.9166 z m 9,0 0.079,-1.9167 0.5252,1.3125 0.5252,1.3125 -0.6042,0.6042 -0.6041,0.6041 0.079,-1.9166 z m 46.504,-4.2825 -0.7833,-1.2673 0.6002,-0.6001 0.6001,-0.6001 0.6042,0.6041 0.6041,0.6042 -0.421,1.2632 -0.4211,1.2633 z m -46.199,-4.5758 -0.5531,-1.4416 0.3916,-1.8084 0.3917,-1.8084 0.5197,3.25 0.5197,3.25 h -0.3582 -0.3582 z m 100.116,-3.5584 1.81,-2 h 0.5 0.5 l -1.81,2 -1.81,2 h -0.5 -0.5 z m -99.4297,-4.5833 0.07,-2.9167 0.8855,-2 0.8856,-2 -0.595,4.5 -0.595,4.5 -0.3608,0.4167 -0.3609,0.4166 0.07,-2.9166 z m 91.5532,1.0446 -0.6235,-1.6249 0.03,-0.6682 0.03,-0.6682 1.0612,1.825 1.0613,1.825 -0.4681,0.4681 -0.4681,0.4681 -0.6236,-1.6249 z m 13.893,-1.1244 3.0165,-2.8369 4.9835,-4.3609 4.9835,-4.3609 -1.2777,0.687 -1.2776,0.687 0.5289,-3.0023 0.5289,-3.0022 -3.7291,-3.0739 -3.7291,-3.0738 h 1.6054 1.6054 l 1.2449,1.5 1.2449,1.5 h 2.3185 2.3186 l 0.5604,-0.9068 0.5604,-0.9067 -2.0067,0.5248 -2.0068,0.5247 -1.4946,-1.2404 -1.4947,-1.2405 v -2.1776 -2.1775 l 1.2,-1.2 1.2,-1.2 h -1.141 -1.141 l -0.648,1.0485 -0.6481,1.0486 -1.1786,-0.9781 -1.1785,-0.9782 -2.4824,1.9074 -2.4824,1.9073 -1.357,0.022 -1.357,0.022 0.5956,1.552 0.5955,1.5519 -0.9679,-0.5982 -0.9679,-0.5982 -2.2706,1.1687 -2.2707,1.1686 1,-0.9998 1,-0.9999 10.5,-7.9143 10.5,-7.9144 9.0965,-5.6199 9.0965,-5.6198 7.9035,-3.9629 7.9035,-3.9628 9.7844,-3.6547 9.7843,-3.6547 7.5585,-1.5632 7.5585,-1.5631 1.9071,0.4987 1.9072,0.4988 v -0.9064 -0.9064 h 2.84 2.8401 l 7.6764,-1.9633 7.6765,-1.9633 4.4835,-3.0847 4.4835,-3.0848 0.03,0.7981 0.03,0.798 1.0311,-1.771 1.031,-1.771 1.1885,0.6813 1.1886,0.6814 -0.7413,-0.8184 -0.7414,-0.8183 1.1047,-1.331 1.1046,-1.331 1.1367,0.6493 1.1367,0.6494 -0.7413,-0.8184 -0.7414,-0.8183 1.1047,-1.331 1.1046,-1.331 1.0412,0.6435 1.0412,0.6435 -0.6555,-1.0606 -0.6555,-1.0605 4.8596,-4.0687 4.8596,-4.0686 0.8017,0.7247 0.8017,0.7247 -0.6141,-1.0797 -0.6141,-1.0798 4.7038,-3.58 4.7038,-3.58 12,-7.6874 12,-7.6875 9.5,-4.7795 9.5,-4.7795 8,-2.5747 8,-2.5747 8.2688,-1.6183 8.2689,-1.6183 1.7311,0.4537 1.7312,0.4537 -2.5,0.1313 -2.5,0.1313 1.5,0.9833 1.5,0.9833 -3.5,-0.5828 -3.5,-0.5828 1.0334,0.8342 1.0335,0.8342 -0.057,1.5 -0.057,1.5 1.2738,1.3214 1.2738,1.3215 v 1.8468 1.8467 l 0.6048,1.5761 0.6048,1.576 0.907,-0.5605 0.9069,-0.5605 0.6133,3.0662 0.6133,3.0664 1.625,0.07 1.625,0.07 -2,0.9476 -2,0.9476 6.8923,-0.4936 6.8924,-0.4935 -0.4013,0.4012 -0.4013,0.4013 -12.991,2.1091 -12.9911,2.1091 -7,2.066 -7,2.0661 -8.6622,4.4552 -8.6623,4.4551 -9.5877,6.4559 -9.5878,6.4558 v -0.4663 -0.4663 l -2.5084,2.5084 -2.5084,2.5084 -1.1461,-0.7084 -1.1461,-0.7083 0.6309,1.0208 0.6309,1.0209 -1.8075,1.6358 -1.8076,1.6359 -0.6688,-0.6689 -0.6689,-0.6688 v 1.2257 1.2256 l -1.1545,-0.7135 -1.1545,-0.7135 0.6273,1.0151 0.6274,1.0151 -7.8057,7.4025 -7.8057,7.4025 -5.4171,3.6868 -5.4172,3.6868 -1.5,0.3001 -1.5,0.3001 -0.6194,0.8477 -0.6193,0.8476 -2.63,0.1524 -2.6299,0.1523 -7e-4,0.809 -7e-4,0.809 -1,-0.618 -1,-0.618 v 0.9208 0.9209 l -10.75,1.7304 -10.75,1.7304 -7.3964,1.4159 -7.3964,1.4159 -9.1036,3.6118 -9.1036,3.6118 -10.5,5.3415 -10.5,5.3415 -10.8247,7.0505 -10.8247,7.0504 -8.1753,6.075 -8.1753,6.075 3.0165,-2.8369 z m 18.4182,-17.7583 1.1796,-1.4213 -2.0571,0.538 -2.0572,0.5379 v 0.8834 0.8834 h 0.8776 0.8775 z m -120.6046,14.0036 0.6699,-1.7458 v -1.4182 -1.4182 h 0.8613 0.8614 l -0.4808,2.5148 -0.4807,2.5147 -1.0505,0.6493 -1.0506,0.6493 z m -0.3301,-7.6412 v -1.059 l 0.9849,0.6087 0.985,0.6087 -0.4714,-3.2997 -0.4714,-3.2997 0.7857,2.5 0.7857,2.5 1.8447,-10.5 1.8447,-10.5 1.856,-5.4066 1.8561,-5.4065 -0.081,-0.5935 -0.081,-0.5934 -1.8928,4 -1.8928,4 -0.026,-0.929 -0.026,-0.929 1.1736,-3.2458 1.1737,-3.2458 1.7926,0.1351 1.7926,0.135 -0.5471,2.5397 -0.5472,2.5398 1.1464,-1.5 1.1464,-1.5 -0.6722,2.3736 -0.6721,2.3737 -0.3169,1.6263 -0.3168,1.6264 -0.092,1 -0.092,1 -0.8278,-1.3051 -0.8278,-1.3052 -1.5608,4.3052 -1.5608,4.3051 -0.5947,4.8793 -0.5947,4.8792 -1.1597,3.8708 -1.1597,3.8707 h -1.3417 -1.3417 z m 110,-0.334 v -0.393 l 1.5519,-0.5956 1.552,-0.5955 -0.611,0.9885 -0.6109,0.9886 h -0.941 -0.941 z m -1.2305,-4.6858 -1.6765,-2.9212 h 0.2732 0.2731 l 2.1427,2.4643 2.1426,2.4642 -0.7392,0.4569 -0.7393,0.4569 z m -100.7156,-2.4212 -0.024,-1 1.8326,-5.5 1.8327,-5.5 1.2682,-3.3011 1.2683,-3.301 0.3439,0.344 0.344,0.3439 -1.8776,5.9571 -1.8775,5.9571 -1.5429,3.5 -1.5429,3.5 -0.024,-1 z m 100.0621,-5.1682 -0.116,-1.1682 -0.6472,-1.8318 -0.6472,-1.8318 1.241,1.1438 1.241,1.1437 -0.4778,1.8563 -0.4778,1.8562 z m -91.5453,-18.3318 0.6541,-2.5 0.8876,-0.95 0.8876,-0.95 -0.035,0.95 -0.035,0.95 -1.5063,2.5 -1.5063,2.5 0.6542,-2.5 z m -8.4507,-9.75 -0.9793,-1.75 -0.8204,0.5 -0.8203,0.5 -0.3003,-6.3493 -0.3003,-6.3492 1.0727,-5.1669 1.0726,-5.1669 1.4777,-2.8481 1.4776,-2.8482 v -1.9793 -1.9794 l 2.0302,-0.5309 2.0302,-0.5309 -0.7802,-13.1254 -0.7802,-13.1255 0.023,-21.5 0.023,-21.5 2.2515,-5.3485 2.2515,-5.3485 2.5075,-3.2875 2.5075,-3.2875 3.772,-2.614 3.7721,-2.614 h 1.4462 1.4463 l -5.7367,5.2482 -5.7367,5.2482 -2.4734,5.0658 -2.4735,5.0658 -1.2006,7.2699 -1.2006,7.27 1.3063,27.8848 1.3064,27.8847 3.157,1.0419 3.1571,1.0419 3.0023,2.7376 3.0024,2.7376 -1.678,-1.29 -1.6779,-1.29 -0.5114,1.9557 -0.5114,1.9556 0.7434,0.8343 0.7434,0.8344 1.1409,5.9168 1.141,5.9167 v 5.399 5.399 l -1.0352,1.9342 -1.0352,1.9343 h -8.4151 -8.4152 l -0.9793,-1.75 z m 22.0379,-2.25 v -2.5 l 0.5044,1.25 0.5044,1.25 -0.5044,1.25 -0.5044,1.25 z m -28,-18 v -2.5 l 0.5044,1.25 0.5044,1.25 -0.5044,1.25 -0.5044,1.25 z m 339.5921,-42.6623 1.25,-0.5044 1.25,0.5044 1.25,0.5044 h -2.5 -2.5 z m 0.25,-17.3377 -1.0704,-2 h 0.5 0.5 l 1.0704,2 1.0704,2 h -0.5 -0.5 z m -12.731,-5.693 1.7691,-0.461 1.2309,0.498 1.231,0.4981 -3,-0.037 -3,-0.037 1.769,-0.461 z m 5.5435,-0.9901 1.3125,-0.5252 0.6042,0.6041 0.6041,0.6042 -1.9166,-0.079 -1.9167,-0.079 1.3125,-0.5252 z"
           inkscape:label="Gold" /><path
                style="display:inline;fill:#000000;fill-opacity:1;stroke:url(#linearGradient7390);stroke-width:1.30072"
                d="m 1185.3018,1260.482 -2.1295,-2.1295 0.01,-1.75 0.01,-1.75 5.7418,-4.573 5.7418,-4.573 6,-4.553 6,-4.5529 10,-6.7347 10,-6.7347 15,-7.3445 15,-7.3445 7.7246,-2.5292 7.7246,-2.5293 13.6515,-2.0826 13.6514,-2.0826 7.124,-2.5489 7.1239,-2.549 6.5,-4.3466 6.5,-4.3467 4,-3.8427 4,-3.8428 7.3341,-6.6995 7.3341,-6.6995 12.1659,-8.1559 12.1659,-8.1559 10.007,-4.8003 10.0069,-4.8003 8.5831,-2.0384 8.5832,-2.0385 15.7626,-1.8087 15.7626,-1.8086 1.4802,2.2592 1.4803,2.2592 -0.6714,2.1152 -0.6713,2.1153 -4.9802,4.928 -4.9801,4.9281 -5.6815,4.345 -5.6814,4.345 -11.5,7.5357 -11.5,7.5357 -19.5,11.1967 -19.5,11.1967 -33,16.3291 -33,16.3291 -19.235,8.1458 -19.2349,8.1457 -14.8823,5.4179 -14.8822,5.418 -10.3828,3.1021 -10.3828,3.1021 -9.1205,0.5628 -9.1205,0.5629 -2.1295,-2.1295 z m -16.4105,-40.8795 -4.6313,-11.75 -10.1259,-26 -10.1259,-26 -0.6761,-0.7082 -0.6761,-0.7082 -13.1075,3.6128 -13.1075,3.6128 -4.5583,-1.8853 -4.5584,-1.8854 -0.7898,-9.5192 -0.7899,-9.5193 -0.036,-24.5 -0.036,-24.5 3.3485,-6.5 3.3484,-6.5 1.7585,-1.5 1.7585,-1.5 11.8931,-9.542 11.893,-9.5419 11.5,-9.0489 11.5,-9.0488 25.5464,-19.9735 25.5464,-19.97343 37.9536,-9.56176 37.9537,-9.56176 119.8464,-30.18322 119.8464,-30.18322 1.4205,1.80924 1.4204,1.80923 0.9746,1.6683 0.9746,1.66829 -2.8319,2.33171 -2.832,2.3317 -69.6127,54 -69.6127,54.00002 -0.047,0.7924 -0.047,0.7924 9.6512,16.7076 9.6512,16.7076 8.9474,15.5 8.9472,15.5 1.0141,1.2382 1.0142,1.2381 -1.3627,0.4181 -1.3626,0.4182 -10.7934,1.6774 -10.7934,1.6775 -9.2066,2.4387 -9.2066,2.4387 -12.0522,5.8921 -12.0523,5.8922 -14.9477,9.9212 -14.9478,9.9211 -10.5,9.7339 -10.5,9.7339 -4.239,2.9708 -4.239,2.9709 -4.261,1.5112 -4.261,1.5112 -13.5,2.0145 -13.5,2.0146 -10.4366,3.4684 -10.4366,3.4685 -12.0634,5.9173 -12.0634,5.9174 -12,7.9685 -12,7.9686 -11.5,9.0507 -11.5,9.0508 -0.5748,0.029 -0.5748,0.029 -4.6314,-11.75 z m -205.05387,-20.6224 -2.57224,-3.3724 1.20355,-1.5244 1.20356,-1.5244 26,-20.307 26,-20.307 23,-17.9882 23,-17.9882 21,-16.442 21,-16.4421 1.2502,-0.9886 1.2502,-0.9885 -1.5086,3.6105 -1.5086,3.6106 -1.0907,7.762 -1.0907,7.7621 1.1464,25 1.1463,25 0.4593,2.2 0.4592,2.2 -3.4907,1.6564 -3.4908,1.6565 -2.0973,3.3935 -2.0973,3.3936 h -0.4039 -0.4039 l -61.8832,17 -61.8832,17 h -1.01266 -1.01266 z"
                id="path21453"
                inkscape:label="Black"/></g></g>
        <g
                inkscape:groupmode="layer"
                id="g21461"
                inkscape:label="Book"
                style="stroke-width:0.24945"><path
         style="display:inline;fill:url(#linearGradient5523);fill-opacity:1;stroke-width:0.24945"
         d="M 100.36803,406.29424 V 253.5638 c 4.20253,-1.12606 6.0352,-9.2336 6.0352,30.18124 0,91.44778 0.67577,182.89914 1.00082,274.34947 -8.882985,3.87667 -7.1336,-3.26993 -7.03602,-9.44065 z m -6.265142,151.86689 c -8.580422,-1.2623 -21.350458,-5.02668 -23.11619,-14.31275 V 239.11661 C 147.98013,227.32769 224.81108,213.4439 301.71656,200.65 c 0.27564,7.35019 0.76521,11.15047 -5.95537,7.28912 -69.26769,11.68417 -138.54733,23.26517 -207.802951,35.05398 5.978418,4.31416 12.030666,8.9834 9.817316,17.46013 -0.13614,98.86781 0.35149,197.70497 -0.3931,296.60345 l -0.147,1.56415 z m 15.316472,-63.6844 c -0.2509,-80.71603 -0.55106,-161.42916 -0.47771,-242.16449 73.1259,-12.84405 146.35967,-24.88187 219.56371,-37.22579 v 305.34252 c -73.01981,12.31803 -146.04272,24.62489 -219.06374,36.92543 -0.007,-20.95924 -0.0149,-41.91853 -0.0223,-62.87767 z"
         id="path21459"
         inkscape:transform-center-x="-70.281315"
         inkscape:transform-center-y="127.63733"
         inkscape:label="Book"
         sodipodi:nodetypes="ccscccccccccccccsccccss" /></g></g>
    <g
            inkscape:label="Icon"
            id="g21441"
            style="display:inline;stroke-width:0.201273"
            transform="matrix(4.9689487,0,0,4.9677851,23.773723,-772.3454)"><g
       inkscape:groupmode="layer"
       id="g21425"
       inkscape:label="Book"
       style="display:inline;stroke-width:0.201273"
       transform="translate(-17.281093,3.8983393)"><path
         style="display:inline;fill:url(#linearGradient9261);fill-opacity:1;stroke-width:0.201273"
         d="M 126.52198,409.312 V 256.58156 c 4.20253,-1.12606 6.0352,-9.2336 6.0352,30.18124 0,91.44778 0.67577,182.89914 1.00082,274.34947 -8.88298,3.87667 -7.1336,-3.26993 -7.03602,-9.44065 z m -6.26514,151.86689 c -8.58042,-1.2623 -21.350457,-5.02668 -23.116189,-14.31275 V 242.13437 c 76.993429,-11.78892 153.824379,-25.67271 230.729859,-38.46661 0.27564,7.35019 0.76521,11.15047 -5.95537,7.28912 -69.26769,11.68417 -138.54733,23.26517 -207.80295,35.05398 5.97842,4.31416 12.03067,8.9834 9.81732,17.46013 -0.13614,98.86781 0.35149,197.70497 -0.3931,296.60345 l -0.147,1.56415 z m 15.31647,-63.6844 C 135.32241,416.77846 135.02225,336.06533 135.0956,255.33 208.2215,242.48595 281.45527,230.44813 354.65931,218.10421 v 305.34252 c -73.01981,12.31803 -146.04272,24.62489 -219.06374,36.92543 -0.007,-20.95924 -0.0149,-41.91853 -0.0223,-62.87767 z"
         id="path21423"
         inkscape:transform-center-x="-70.281315"
         inkscape:transform-center-y="127.63733"
         inkscape:label="Book"
         sodipodi:nodetypes="ccscccccccccccccsccccss" /></g>
        <g
                inkscape:groupmode="layer"
                id="g21433"
                inkscape:label="Cap"
                style="display:inline;stroke:none;stroke-width:0.201273;stroke-opacity:1"
                transform="translate(15.42302,-9.13957)"><g
         id="g21431"
         transform="matrix(0.36875346,-0.02335149,0.02335149,0.36875346,-402.46937,-137.79413)"
         style="fill-rule:nonzero;stroke:none;stroke-width:0.544729;stroke-opacity:1"
         inkscape:label="Cap"><path
           id="path21427"
           style="display:inline;fill:#a7750d;fill-rule:nonzero;stroke:none;stroke-width:0.544729;stroke-opacity:1"
           d="m 1092.1723,1368.2999 v -1.0526 l 1.5057,-6.6974 1.5057,-6.6974 0.9778,-9 0.9778,-9 1.0331,-18 1.0331,-18 1.5752,-22.5 1.5753,-22.5 0.7073,-0.7491 0.7072,-0.7491 -0.4191,3.7491 -0.4191,3.7491 0.739,-0.7024 0.7391,-0.7024 1.2478,1.2478 1.2478,1.2478 -0.052,2.9546 -0.052,2.9546 1.1683,13.5 1.1683,13.5 1.0889,21.8963 1.0888,21.8963 -1.3223,0.9298 -1.3222,0.9298 1.25,0.5072 1.25,0.5073 v 0.9756 0.9757 l -1.1072,-0.6842 -1.1071,-0.6843 0.6836,2.1537 0.6835,2.1538 -2.2438,11.4715 -2.2438,11.4715 h -6.8326 -6.8326 v -1.0526 z m 9.9694,-17.4474 v -1 l -0.9694,1.5 -0.9694,1.5 v 1 1 l 0.9694,-1.5 0.9694,-1.5 z m 0.7137,-6.6875 -0.5252,-1.3125 -0.079,1.9167 -0.079,1.9166 0.6042,-0.6041 0.6041,-0.6042 -0.5252,-1.3125 z m 1.0062,-10.5625 -0.4573,-1.75 v 3.5 3.5 l 0.4573,-1.75 0.4573,-1.75 z m 5.9938,0.5625 -0.5252,-1.3125 -0.079,1.9167 -0.079,1.9166 0.6042,-0.6041 0.6041,-0.6042 -0.5252,-1.3125 z m -8.0208,-17.0625 -0.5044,-1.25 v 2.5 2.5 l 0.5044,-1.25 0.5044,-1.25 z m 3.0208,-2.9375 -0.5252,-1.3125 -0.079,1.9167 -0.079,1.9166 0.6042,-0.6041 0.6041,-0.6042 -0.5252,-1.3125 z m -0.021,-9.0625 -0.5044,-1.25 v 2.5 2.5 l 0.5044,-1.25 0.5044,-1.25 z m -2.9792,0.062 -0.5252,-1.3125 -0.079,1.9167 -0.079,1.9166 0.6042,-0.6041 0.6042,-0.6042 -0.5253,-1.3125 z m 2.0454,-15.5625 -0.3923,-3.75 v 7.5 7.5 l 0.3923,-3.75 0.3923,-3.75 z m 1.9546,2.5625 -0.5252,-1.3125 -0.079,1.9167 -0.079,1.9166 0.6042,-0.6041 0.6042,-0.6042 -0.5253,-1.3125 z m -2.9901,-19.5435 -0.461,-1.769 -0.037,3 -0.037,3 0.4981,-1.231 0.498,-1.231 -0.461,-1.769 z m 17.1078,94.0979 0.5681,-2.8669 0.6116,2.5 0.6116,2.5 0.7814,-2 0.7815,-2 1.4934,-9 1.4934,-9 0.5314,-20.5 0.5313,-20.5 -2.1857,-14.5 -2.1858,-14.5 -1.8633,-11.4316 -1.8633,-11.4315 0.493,-0.7978 0.4931,-0.7978 -1.21,-2.2707 -1.2099,-2.2706 1.728,1.4258 1.728,1.4258 -0.568,2.2629 -0.5679,2.2629 0.9765,0.6035 0.9765,0.6035 0.92,3.7078 0.92,3.7078 1.7843,8.1995 1.7842,8.1996 0.6785,-0.4193 0.6784,-0.4193 -0.5005,2.6184 -0.5006,2.6183 0.895,-0.5531 0.895,-0.5531 0.133,2.6545 0.1331,2.6545 0.7412,3.5 0.7412,3.5 0.1447,1.5 0.1446,1.5 1.1325,2 1.1325,2 0.023,0.7666 0.023,0.7667 0.6934,3.2333 0.6934,3.2334 0.5074,0.8567 0.5074,0.8568 0.7083,-1.1461 0.7083,-1.1461 0.1086,3.2893 0.1086,3.2894 -1.04,9 -1.0401,9 -1.861,8 -1.8611,8 -0.9585,7.8677 -0.9586,7.8677 -0.9953,0.9953 -0.9953,0.9954 -4.4706,0.5039 -4.4707,0.5039 0.5681,-2.867 z m 15.8615,-50.6169 -0.5044,-1.25 v 2.5 2.5 l 0.5044,-1.25 0.5044,-1.25 z m -3,-9 -0.5044,-1.25 v 2.5 2.5 l 0.5044,-1.25 0.5044,-1.25 z m -50.1623,60.25 0.618,-1 h 0.441 0.441 v 1 1 h -1.059 -1.059 z m -15.5,-2.644 -4.5,-1.5486 -0.8747,-0.8284 -0.8746,-0.8284 3.1434,-7.551 3.1435,-7.551 2.8873,-12.7743 2.8873,-12.7743 1.0877,-7.5 1.0877,-7.5 1.0046,-19.1664 1.0047,-19.1663 1.0379,-7.4622 1.0379,-7.4623 2.8603,-10.3714 2.8602,-10.3714 3.9604,-13 3.9604,-13 1.2564,-5.3069 1.2564,-5.3068 -1.7624,-1.2887 -1.7623,-1.2886 0.5864,-10.9045 0.5863,-10.9045 0.5049,-2.2486 0.5049,-2.2486 1.4661,-2.0931 1.466,-2.093 1.9952,-1.3975 1.9952,-1.3975 -0.503,2.2391 -0.5029,2.2392 -1.3812,3.1102 -1.3811,3.1102 -1.071,4.9936 -1.0709,4.9936 0.3015,6.3962 0.3015,6.3962 0.9101,-0.3396 0.9101,-0.3396 0.8896,1.5896 0.8896,1.5896 h 8.4151 8.4151 l 1.0352,-1.9343 1.0352,-1.9342 v -5.399 -5.399 l -1.1489,-5.9167 -1.1489,-5.9168 -0.7275,-1 -0.7275,-1 0.6901,-1.8945 0.6902,-1.8945 2.1208,2.6961 2.1207,2.696 0.6986,5.5913 0.6985,5.5912 -0.5886,7.0207 -0.5885,7.0207 -0.8905,0.5865 -0.8906,0.5865 -0.7226,2.9478 -0.7227,2.9479 -0.916,-1.4479 -0.916,-1.4478 -0.031,1.5 -0.031,1.5 -0.8465,-1.3354 -0.8465,-1.3354 -0.6786,-0.1646 -0.6787,-0.1646 -1.8593,3 -1.8593,3 -4.2054,12.5 -4.2055,12.5 -0.5403,5.8235 -0.5404,5.8235 -0.8391,-1.3235 -0.8391,-1.3235 -0.1573,9.5 -0.1572,9.5 -0.6517,-4 -0.6517,-4 -0.8178,6.5 -0.8177,6.5 -0.8121,1.0102 -0.812,1.0102 -1.1504,10.4548 -1.1504,10.4547 -0.4711,0.7622 -0.471,0.7621 -1.3884,8.7729 -1.3883,8.7729 -1.1517,10 -1.1517,10 -1.4518,6.3142 -1.4518,6.3141 0.2123,3.6859 0.2123,3.6858 -1.2655,2.3522 -1.2655,2.3523 0.4963,1.8977 0.4963,1.8978 h -0.6993 -0.6993 l -1.8737,5.5125 -1.8738,5.5125 v 1.4875 1.4875 l -1.5833,-0.048 -1.5834,-0.048 -4.5,-1.5486 z m 16.9297,-55.2727 0.07,-2.4166 -0.3673,0.4166 -0.3674,0.4167 -0.609,4 -0.6091,4 0.9061,-2 0.9061,-2 0.07,-2.4167 z m 0.776,-10.3333 -0.4333,-2.25 v 4.5 4.5 l 0.4333,-2.25 0.4334,-2.25 z m 4.696,-28.2167 0.6984,-6.9668 -0.4546,0.4668 -0.4547,0.4667 -1.5954,10.7803 -1.5954,10.7802 0.1025,3.2198 0.1025,3.2197 1.2491,-7.5 1.2491,-7.5 z m -2.7186,-8.7208 -0.5252,-1.3125 -0.079,1.9167 -0.079,1.9166 0.6042,-0.6041 0.6041,-0.6042 -0.5252,-1.3125 z m 0.4508,-10.0625 -0.5197,-3.25 -0.3917,1.8084 -0.3916,1.8084 0.5531,1.4416 0.5532,1.4416 h 0.3582 0.3582 z m 1.1828,-8.75 0.595,-4.5 -0.8856,2 -0.8855,2 -0.07,2.9167 -0.07,2.9166 0.3608,-0.4166 0.3609,-0.4167 0.595,-4.5 z m 3.9252,-3.4852 0.4808,-2.5148 h -0.8614 -0.8613 v 1.4182 1.4182 l -0.6699,1.7458 -0.67,1.7459 1.0506,-0.6493 1.0505,-0.6493 z m 1.6012,-8.3855 1.1597,-3.8708 0.5947,-4.8792 0.5947,-4.8793 1.5608,-4.3052 1.5608,-4.3051 0.8278,1.3051 0.8278,1.3052 0.092,-1 0.092,-1 0.3168,-1.6264 0.3169,-1.6263 0.6721,-2.3737 0.6722,-2.3736 -1.1464,1.5 -1.1464,1.5 0.5472,-2.5398 0.5471,-2.5397 -1.7926,-0.135 -1.7926,-0.1351 -1.1737,3.2458 -1.1736,3.2458 0.026,0.929 0.026,0.929 1.8928,-4 1.8929,-4 0.081,0.5934 0.081,0.5935 -1.856,5.4065 -1.8561,5.4066 -1.8447,10.5 -1.8447,10.5 -0.7857,-2.5 -0.7857,-2.5 0.4714,3.2997 0.4714,3.2997 -0.9849,-0.6087 -0.985,-0.6087 v 1.059 1.059 h 1.3418 1.3417 l 1.1597,-3.8707 z m 9.1985,-16.5864 1.8776,-5.9571 -0.344,-0.3439 -0.344,-0.344 -1.2682,3.301 -1.2682,3.3011 -1.8327,5.5 -1.8326,5.5 0.024,1 0.024,1 1.5429,-3.5 1.5429,-3.5 1.8775,-5.9571 z m 5.923,-14.9929 0.035,-0.95 -0.8876,0.95 -0.8876,0.95 -0.6541,2.5 -0.6541,2.5 1.5062,-2.5 1.5063,-2.5 0.035,-0.95 z m -16.8856,154.8667 0.079,-1.9167 0.5252,1.3125 0.5252,1.3125 -0.6042,0.6042 -0.6041,0.6041 0.079,-1.9166 z m 1.0789,-6.4167 v -2.5 l 0.5044,1.25 0.5044,1.25 -0.5044,1.25 -0.5044,1.25 z m 18,-24 v -2.5 l 0.5044,1.25 0.5044,1.25 -0.5044,1.25 -0.5044,1.25 z m -23.9259,-8 v -3.5 l 0.4573,1.75 0.4573,1.75 -0.4573,1.75 -0.4573,1.75 z m 23.963,-0.5 0.037,-3 0.4609,1.769 0.461,1.769 -0.498,1.231 -0.4981,1.231 0.037,-3 z m -14.909,-4 0.014,-5 0.4179,2.7637 0.418,2.7638 -0.4316,2.2362 -0.4316,2.2363 z m -7.286,-8.941 v -2.441 l 0.8191,-0.5062 0.819,-0.5062 -0.4325,2.9472 -0.4326,2.9472 h -0.3865 -0.3865 z m 47.842,-3.1425 0.342,-5.3971 -1.1828,-7.0126 -1.1829,-7.0126 -0.7842,0.4847 -0.7843,0.4847 -0.777,-4.2318 -0.7771,-4.2318 -0.1624,-0.5 -0.1625,-0.5 -1.3192,-4.5 -1.3193,-4.5 -6.4519,-20.5 -6.4519,-20.5 -1.3969,-6.5 -1.3969,-6.5 -0.017,-3.75 -0.017,-3.75 h 0.75 0.75 l 0.1683,5.7474 0.1683,5.7473 2.5726,7.6492 2.5726,7.6492 0.3167,2.075 0.3166,2.0751 0.6925,0.6924 0.6924,0.6925 v 1.8399 1.84 l 2.4074,2.0932 2.4075,2.0933 0.6718,3.5809 0.6718,3.581 0.7816,-1.2647 0.7816,-1.2647 0.6277,1.6358 0.6277,1.6358 -1.0955,-0.677 -1.0955,-0.6771 0.5734,3.3751 0.5734,3.3751 -2.3485,-6.9606 -2.3484,-6.9607 -1.0112,-0.3371 -1.0112,-0.337 2.4251,6.7977 2.4251,6.7977 0.6609,1.5 0.661,1.5 0.1918,1 0.1918,1 0.1154,3.309 0.1153,3.3091 0.9243,-0.5713 0.9243,-0.5713 0.3662,1.7623 0.3661,1.7622 0.6163,-2.2513 0.6163,-2.2514 -1.0767,0.6654 -1.0767,0.6654 0.6585,-1.716 0.6585,-1.7159 -0.8801,0.5439 -0.8801,0.5439 -0.3882,-3.3253 -0.3882,-3.3253 h 1.2358 1.2357 l -0.5421,0.8771 -0.5421,0.8771 0.9777,1.2062 0.9777,1.2062 1.0326,5.5 1.0326,5.5 -0.057,1.5 -0.057,1.5 1.1324,5.9337 1.1323,5.9337 v 9.2573 9.2573 l -0.75,0.4658 -0.75,0.4659 0.342,-5.3971 z m -39.5603,-10.9165 -0.048,-12 0.7307,-6.5 0.7306,-6.5 0.035,8.5 0.035,8.5 -0.7177,10 -0.7177,10 -0.048,-12 z m 21.9133,-19 0.037,-3 0.4609,1.769 0.461,1.769 -0.498,1.231 -0.4981,1.231 0.037,-3 z m -0.5715,-5.0387 -0.6235,-1.6249 0.1024,-2.1682 0.1023,-2.1682 0.8211,3.4932 0.8211,3.4932 -0.2999,0.2999 -0.2999,0.2999 z m -23.4656,-1.4613 v -2.5 l 0.5044,1.25 0.5044,1.25 -0.5044,1.25 -0.5044,1.25 z m 4.0943,-3.5 0.02,-4 0.4349,2.2616 0.4349,2.2617 -0.4551,1.7383 -0.4551,1.7384 0.02,-4 z m 91.9978,2.8107 1.75,-0.4574 1.75,0.4574 1.75,0.4573 h -3.5 -3.5 z m -82.171,-1.894 0.079,-1.9167 0.5252,1.3125 0.5252,1.3125 -0.6042,0.6042 -0.6041,0.6041 0.079,-1.9166 z m -14,-2 0.079,-1.9167 0.5252,1.3125 0.5252,1.3125 -0.6042,0.6042 -0.6041,0.6041 0.079,-1.9166 z m 10.116,-2.9167 0.037,-3 0.4609,1.769 0.461,1.769 -0.498,1.231 -0.4981,1.231 0.037,-3 z m 3.0572,-1 0.02,-4 0.4349,2.2616 0.4349,2.2617 -0.4551,1.7383 -0.4551,1.7384 0.02,-4 z m 7.4012,-6.4277 -1.8466,-10.2124 0.4656,-0.4656 0.4656,-0.4657 1.7296,8.9045 1.7296,8.9046 -0.3486,1.7735 -0.3486,1.7735 z m 66.327,5.7458 -0.02,-1.3181 -4.3482,-10.6125 -4.3482,-10.6125 2.6178,-1.5464 2.6178,-1.5463 1,-0.1745 1,-0.1745 0.5,-0.577 0.5,-0.577 -1.5,0.8523 -1.5,0.8523 1.3633,-1.681 1.3633,-1.6809 0.8867,0.548 0.8867,0.548 v -1.0006 -1.0005 l 6.25,-4.6481 6.25,-4.648 -2.8058,2.5896 -2.8058,2.5896 1.3058,-0.022 1.3058,-0.022 2.4824,-1.9074 2.4823,-1.9073 1.1786,0.9781 1.1786,0.9782 0.6481,-1.0486 0.648,-1.0485 h 1.141 1.141 l -1.2,1.1999 -1.2,1.2001 v 2.1775 2.1776 l 1.4946,1.2404 1.4947,1.2405 2.0067,-0.5248 2.0067,-0.5247 -0.5604,0.9067 -0.5604,0.9068 h -2.3185 -2.3185 l -1.2449,-1.5 -1.2449,-1.5 h -1.6054 -1.6054 l 3.7291,3.0738 3.7291,3.0738 -0.5289,3.0023 -0.529,3.0023 1.2777,-0.6699 1.2777,-0.6699 -4.2552,3.681 -4.2551,3.6809 0.4941,0.7995 0.4942,0.7995 -1.681,1.3633 -1.6809,1.3634 0.7509,-1.25 0.751,-1.25 h -0.8847 -0.8847 l -2.4243,2.7428 -2.4243,2.7428 2.055,-1.4928 2.055,-1.4928 -3.055,2.823 -3.055,2.8231 -2.75,1.995 -2.75,1.995 -0.02,-1.3181 z m 5.5196,-3.8181 1.81,-2 h -0.5 -0.5 l -1.81,2 -1.81,2 h 0.5 0.5 z m 14.9929,-16.9886 0.611,-0.9885 -1.552,0.5955 -1.5519,0.5956 v 0.393 0.393 h 0.941 0.941 z m -2.7109,-4.5471 -2.1427,-2.4643 h -0.2731 -0.2732 l 1.6765,2.9212 1.6766,2.9211 0.7393,-0.4569 0.7392,-0.4569 z m -9.7728,-5.9586 0.9679,0.5982 -0.5811,-1.5144 -0.5811,-1.5143 -2.4075,1.5774 -2.4074,1.5774 v 0.4202 0.4202 l 2.0207,-1.0815 2.0206,-1.0814 z m 7.9374,-4.8619 -1.241,-1.1438 0.6472,1.8318 0.6472,1.8318 0.116,1.1682 0.116,1.1682 0.4778,-1.8562 0.4778,-1.8563 z m -66.8676,34.7729 0.079,-1.9167 0.5252,1.3125 0.5252,1.3125 -0.6042,0.6042 -0.6041,0.6041 0.079,-1.9166 z m -30.9211,-1.4167 v -2.5 l 0.5044,1.25 0.5044,1.25 -0.5044,1.25 -0.5044,1.25 z m 7,-4 v -2.5 l 0.5044,1.25 0.5044,1.25 -0.5044,1.25 -0.5044,1.25 z m -2.0789,-8.5833 0.079,-1.9167 0.5252,1.3125 0.5252,1.3125 -0.6042,0.6042 -0.6041,0.6041 0.079,-1.9166 z m 2.5877,0.9166 -0.6667,-0.6666 0.058,-5.5834 0.058,-5.5833 0.784,-4 0.784,-4 -0.092,10.2444 -0.092,10.2444 -0.083,0.01 -0.083,0.01 -0.6666,-0.6667 z m 95.3333,-0.7109 v -0.3775 l 1.75,-1.3725 1.75,-1.3724 -1.3724,1.75 -1.3725,1.75 h -0.3775 -0.3776 z m -77.921,-4.2057 0.079,-1.9167 0.5252,1.3125 0.5252,1.3125 -0.6042,0.6042 -0.6041,0.6041 0.079,-1.9166 z m -15.9211,-2.4167 v -2.5 l 0.5044,1.25 0.5044,1.25 -0.5044,1.25 -0.5044,1.25 z m 13.4656,0.4613 -0.6235,-1.6249 0.03,-0.6682 0.03,-0.6682 1.0612,1.825 1.0613,1.825 -0.4681,0.4681 -0.4681,0.4681 -0.6236,-1.6249 z m -18.4285,-3.9613 0.037,-3 0.4609,1.769 0.461,1.769 -0.498,1.231 -0.4981,1.231 0.037,-3 z m 103.805,-0.3834 v -0.8834 l 2.0571,-0.5379 2.0572,-0.538 -1.1796,1.4213 -1.1796,1.4214 h -0.8775 -0.8776 z m -87.921,-3.6999 0.079,-1.9167 0.5252,1.3125 0.5252,1.3125 -0.6042,0.6042 -0.6041,0.6041 0.079,-1.9166 z m -14.909,-1.4167 0.029,-1.5 0.8006,-2.5 0.8006,-2.5 0.029,2 0.029,2 -0.8594,2 -0.8594,2 0.029,-1.5 z m 13.4535,-2.5387 -0.6235,-1.6249 0.086,-1.6682 0.086,-1.6682 0.881,2.9497 0.881,2.9498 -0.3434,0.3433 -0.3434,0.3434 -0.6236,-1.6249 z m -1.9516,-8.3519 -0.6719,-3.3594 0.1096,-2.125 0.1095,-2.125 0.8856,4.5 0.8855,4.5 -0.3232,0.9844 -0.3232,0.9843 z m 79.3281,2.513 v -0.3775 l 1.75,-1.3725 1.75,-1.3724 -1.3724,1.75 -1.3725,1.75 h -0.3775 -0.3776 z m 4,-3 v -0.3775 l 1.75,-1.3725 1.75,-1.3724 -1.3724,1.75 -1.3725,1.75 h -0.3775 -0.3776 z m 79.8125,-10.3055 1.3125,-0.5252 0.6042,0.6041 0.6041,0.6042 -1.9166,-0.079 -1.9167,-0.079 1.3125,-0.5252 z m 45.1875,-15.6945 v -0.3775 l 1.75,-1.3725 1.75,-1.3724 -1.3724,1.75 -1.3725,1.75 h -0.3775 -0.3776 z m -47.1875,-9.3055 1.3125,-0.5252 0.6042,0.6041 0.6041,0.6042 -1.9166,-0.079 -1.9167,-0.079 1.3125,-0.5252 z m 61.1875,-3.8169 3.3923,-3.5 h 0.5 0.5 l -3.3923,3.5 -3.3923,3.5 h -0.5 -0.5 z m -29,-6.8129 v -0.3129 l 3.25,-2.9371 3.25,-2.9371 -2.9371,3.25 -2.9371,3.25 h -0.3129 -0.3129 z m -196.4929,-4.6757 -0.611,-0.9885 1.552,0.5955 1.5519,0.5956 v 0.393 0.393 h -0.941 -0.941 z m -7.2211,-7.5114 0.014,-5 0.4179,2.7637 0.418,2.7638 -0.4316,2.2362 -0.4316,2.2363 z m -3.0338,-1 0.02,-4 0.4349,2.2616 0.4349,2.2617 -0.4551,1.7383 -0.4551,1.7384 0.02,-4 z m 222.7478,-2 2.3486,-2.5 h 0.5 0.5 l -2.3486,2.5 -2.3486,2.5 h -0.5 -0.5 z m 108,-1.8776 v -0.3775 l 1.75,-1.3725 1.75,-1.3724 -1.3724,1.75 -1.3725,1.75 h -0.3775 -0.3776 z m -103,-2 v -0.3775 l 1.75,-1.3725 1.75,-1.3724 -1.3724,1.75 -1.3725,1.75 h -0.3775 -0.3776 z m -225.714,-11.1224 0.014,-5 0.4179,2.7637 0.418,2.7638 -0.4316,2.2362 -0.4316,2.2363 z m -3.054,-0.5 v -3.5 l 0.4573,1.75 0.4573,1.75 -0.4573,1.75 -0.4573,1.75 z m 317.518,-2.6623 1.25,-0.5044 1.25,0.5044 1.25,0.5044 h -2.5 -2.5 z m 1.75,-1.1227 -5,-0.4244 2,-0.825 2,-0.825 -1.625,-0.07 -1.625,-0.07 -0.6133,-3.0662 -0.6132,-3.0663 -0.907,0.5605 -0.9069,0.5606 -0.6048,-1.5761 -0.6048,-1.576 v -1.8468 -1.8468 l -1.2738,-1.3214 -1.2738,-1.3215 0.057,-1.5 0.057,-1.5 -1.0335,-0.8341 -1.0334,-0.8342 3.5,0.5828 3.5,0.5828 -1.5,-0.9833 -1.5,-0.9833 2.5,-0.086 2.5,-0.086 -2,-0.9103 -2,-0.9103 5,0.4885 5,0.4885 -2,-1.0186 -2,-1.0187 3.6573,0.5386 3.6574,0.5387 0.3426,-1.0028 0.3427,-1.0027 7.6509,12.9268 7.6511,12.9269 -6.1078,-0.3889 -6.1078,-0.3888 1.4568,0.9215 1.4568,0.9215 -3.5,-0.1649 -3.5,-0.1649 -5,-0.4245 z m 7.75,-0.8773 -1.25,-0.5044 -1.25,0.5044 -1.25,0.5044 h 2.5 2.5 z m -324.8646,-21.3377 v -12.5 l 0.355,6.25 0.355,6.25 -0.355,6.25 -0.355,6.25 z m -3.0202,-0.5 0.01,-10 0.3685,5.2835 0.3684,5.2835 -0.3732,4.7165 -0.3731,4.7165 v -10 z m 302.4473,0.8169 1.3125,-0.5252 0.6042,0.6041 0.6041,0.6042 -1.9166,-0.079 -1.9167,-0.079 1.3125,-0.5252 z m 5,-1 1.3125,-0.5252 0.6042,0.6041 0.6041,0.6042 -1.9166,-0.079 -1.9167,-0.079 1.3125,-0.5252 z m -300.8125,-25.2579 v -0.941 l 0.9886,-0.6109 0.9885,-0.611 -0.5955,1.5519 -0.5956,1.552 h -0.393 -0.393 z m -4.3869,-1.242 0.5251,-0.8496 0.9309,0.5753 0.9309,0.5753 v 0.2743 0.2743 h -1.456 -1.456 z m 11.8869,-8.817 1.81,-2 h 0.5 0.5 l -1.81,2 -1.81,2 h -0.5 -0.5 z m -10.7262,296.1167 0.9586,-0.6162 2.2184,-11.1963 2.2183,-11.1962 -0.6916,-2.179 -0.6916,-2.179 1.1072,0.6843 1.1071,0.6842 v -0.9757 -0.9756 l -1.25,-0.5073 -1.25,-0.5072 1.3223,-0.9298 1.3222,-0.9298 -1.0888,-21.8963 -1.0888,-21.8963 -1.1684,-13.5 -1.1683,-13.5 0.052,-2.9546 0.052,-2.9546 -1.2478,-1.2478 -1.2478,-1.2478 -0.739,0.7024 -0.7391,0.7024 0.4191,-3.7491 0.4191,-3.7491 -0.7072,0.7491 -0.7072,0.7491 -1.5753,22.5 -1.5753,22.5 -1.0331,18 -1.0331,18 -0.9916,9 -0.9916,9 -1.6622,7.75 -1.6622,7.75 h -3.3611 -3.361 l -0.5854,-1.5255 -0.5854,-1.5256 -1.3487,1.1193 -1.3486,1.1193 -4.1656,-0.7038 -4.1655,-0.7038 0.8809,-0.6399 0.8811,-0.64 0.2531,-1.5 0.2531,-1.5 1.704,-5.25 1.704,-5.25 h 0.6993 0.6993 l -0.4963,-1.8978 -0.4963,-1.8977 1.2655,-2.3523 1.2655,-2.3522 -0.2123,-3.6858 -0.2124,-3.6859 1.4519,-6.3141 1.4518,-6.3142 1.1517,-10 1.1517,-10 1.3883,-8.7729 1.3883,-8.7729 0.4711,-0.7621 0.471,-0.7622 1.1504,-10.4547 1.1504,-10.4548 0.8121,-1.0102 0.812,-1.0102 0.8178,-6.5 0.8178,-6.5 0.6517,4 0.6517,4 0.1572,-9.5 0.1572,-9.5 0.8392,1.3235 0.8391,1.3235 0.5403,-5.8235 0.5404,-5.8235 4.2054,-12.5 4.2055,-12.5 1.6497,-2.5 1.6498,-2.5 1.25,-0.25 1.25,-0.25 0.015,1.25 0.015,1.25 0.9694,-1.5 0.9694,-1.5 0.015,1.4411 0.015,1.4411 1.4682,-1.9411 1.4682,-1.9411 0.032,0.8447 0.032,0.8447 3.9961,17.6553 3.9961,17.6553 2.4657,7.9781 2.4657,7.9781 -0.5427,2.5219 -0.5427,2.5219 1.1346,-1.5 1.1347,-1.5 -0.3632,2 -0.3631,2 -0.9817,-0.1804 -0.9817,-0.1803 0.3996,3.4223 0.3995,3.4223 0.8801,-0.5439 0.8801,-0.5439 -0.6585,1.716 -0.6585,1.716 1.1699,-0.7231 1.17,-0.723 0.079,-1.691 0.079,-1.691 0.4486,1.0826 0.4486,1.0826 -1.5214,2.9174 -1.5214,2.9174 -0.01,-1.809 -0.01,-1.809 -1,0.618 -1,0.618 -0.1154,-3.309 -0.1153,-3.309 -0.1918,-1 -0.1918,-1 -0.661,-1.5 -0.6609,-1.5 -2.4251,-6.7978 -2.4251,-6.7977 1.0112,0.3371 1.0112,0.337 2.3484,6.9607 2.3485,6.9607 -0.5734,-3.3751 -0.5734,-3.3751 1.0955,0.677 1.0955,0.6771 -0.6277,-1.6358 -0.6277,-1.6358 -0.7816,1.2647 -0.7816,1.2646 -0.6718,-3.5809 -0.6718,-3.581 -2.4075,-2.0932 -2.4074,-2.0933 v -1.8399 -1.84 l -0.6925,-0.6924 -0.6924,-0.6925 -0.3167,-2.075 -0.3166,-2.0751 -2.5726,-7.6491 -2.5726,-7.6492 -0.1683,-5.7474 -0.1683,-5.7474 h -0.75 -0.7502 l 0.017,3.75 0.017,3.75 1.3969,6.5 1.3968,6.5 6.452,20.5 6.4519,20.5 1.3193,4.5 1.3192,4.5 0.1624,0.5 0.1625,0.5 0.777,4.2318 0.7771,4.2318 0.7842,-0.4847 0.7843,-0.4847 1.1828,7.0126 1.1828,7.0126 -0.3419,5.4433 -0.342,5.4434 0.6927,-0.7031 0.6927,-0.703 0.3723,-5.5 0.3723,-5.5 0.185,10.75 0.1849,10.75 h -1.0674 -1.0674 l 0.6329,-2.25 0.6329,-2.25 -0.9405,1.3567 -0.9405,1.3568 -0.5074,-0.8568 -0.5074,-0.8567 -0.6934,-3.2334 -0.6934,-3.2333 -0.023,-0.7667 -0.023,-0.7666 -1.1325,-2 -1.1325,-2 -0.1446,-1.5 -0.1447,-1.5 -0.7412,-3.5 -0.7412,-3.5 -0.133,-2.6545 -0.1331,-2.6545 -0.895,0.5531 -0.895,0.5531 0.5006,-2.6183 0.5005,-2.6184 -0.6784,0.4193 -0.6784,0.4193 -1.7843,-8.1996 -1.7843,-8.1995 -0.92,-3.7078 -0.92,-3.7078 -0.9765,-0.6035 -0.9765,-0.6035 0.5679,-2.2629 0.568,-2.2629 -1.728,-1.4258 -1.728,-1.4258 1.2099,2.2706 1.21,2.2707 -0.493,0.7978 -0.4931,0.7978 1.8633,11.4315 1.8633,11.4316 2.1858,14.5 2.1858,14.5 -0.5314,20.5 -0.5314,20.5 -1.5185,9.2452 -1.5186,9.2452 -1.0219,1.7548 -1.022,1.7548 -0.03,-2.4167 -0.03,-2.4166 -0.4971,0.4971 -0.4972,0.4972 -0.2238,2.7037 -0.2237,2.7037 -7.8716,-0.168 -7.8716,-0.168 0.9586,-0.6162 z m -12.0905,-15.3037 -0.5252,-1.3125 -0.079,1.9167 -0.079,1.9166 0.6042,-0.6041 0.6041,-0.6042 -0.5252,-1.3125 z m 0.9792,-7.0625 -0.5044,-1.25 v 2.5 2.5 l 0.5044,-1.25 0.5044,-1.25 z m 18,-24 -0.5044,-1.25 v 2.5 2.5 l 0.5044,-1.25 0.5044,-1.25 z m -23.973,-8.5 -0.4573,-1.75 v 3.5 3.5 l 0.4573,-1.75 0.4573,-1.75 z m 24.0037,0.019 -0.461,-1.769 -0.037,3 -0.037,3 0.4981,-1.231 0.498,-1.231 -0.461,-1.769 z m -14.9754,-5.0053 -0.4179,-2.7638 -0.014,5 -0.014,5 0.4315,-2.2362 0.4316,-2.2362 z m -6.512,-7.2109 0.4325,-2.9472 -0.819,0.5062 -0.8191,0.5062 v 2.441 2.4409 h 0.3865 0.3865 z m 8.5245,-30.0528 -0.035,-8.5 -0.7307,6.5 -0.7306,6.5 0.048,12 0.048,12 0.7177,-10 0.7177,-10 -0.035,-8.5 z m 20.9629,-3.731 -0.461,-1.769 -0.037,3 -0.037,3 0.4981,-1.231 0.498,-1.231 -0.461,-1.769 z m -0.6672,-6.2758 -0.8211,-3.4932 -0.1023,2.1682 -0.1024,2.1682 0.6235,1.6249 0.6236,1.6249 0.2999,-0.2999 0.2999,-0.2999 z m -23.3635,-0.2432 -0.5044,-1.25 v 2.5 2.5 l 0.5044,-1.25 0.5044,-1.25 z m 4.045,-3.9884 -0.4349,-2.2616 -0.02,4 -0.02,4 0.455,-1.7384 0.4551,-1.7383 -0.4349,-2.2617 z m 9.9758,2.0509 -0.5252,-1.3125 -0.079,1.9167 -0.079,1.9166 0.6042,-0.6041 0.6041,-0.6042 -0.5252,-1.3125 z m -14,-2 -0.5252,-1.3125 -0.079,1.9167 -0.079,1.9166 0.6042,-0.6041 0.6041,-0.6042 -0.5252,-1.3125 z m 10.0099,-3.5435 -0.461,-1.769 -0.037,3 -0.037,3 0.4981,-1.231 0.498,-1.231 -0.461,-1.769 z m 3.0143,-1.5074 -0.4349,-2.2616 -0.02,4 -0.02,4 0.455,-1.7384 0.4551,-1.7383 -0.4349,-2.2617 z m 7.7603,-6.9285 -1.7296,-8.9045 -0.4656,0.4657 -0.4656,0.4656 1.8466,10.2124 1.8466,10.2124 0.3486,-1.7735 0.3486,-1.7735 z m -15.8053,3.9169 -0.5044,-1.25 v 2.5 2.5 l 0.5044,-1.25 0.5044,-1.25 z m 7,-4 -0.5044,-1.25 v 2.5 2.5 l 0.5044,-1.25 0.5044,-1.25 z m -1.9792,-7.9375 -0.5252,-1.3125 -0.079,1.9167 -0.079,1.9166 0.6042,-0.6041 0.6041,-0.6042 -0.5252,-1.3125 z m 2.9086,-8.0681 0.092,-10.2444 -0.7841,4 -0.784,4 -0.058,5.5833 -0.058,5.5834 0.6667,0.6666 0.6667,0.6667 0.083,-0.01 0.083,-0.01 0.092,-10.2444 z m 17.0914,4.0681 -0.5252,-1.3125 -0.079,1.9167 -0.079,1.9166 0.6042,-0.6041 0.6041,-0.6042 -0.5252,-1.3125 z m -16.0208,-3.0625 -0.5044,-1.25 v 2.5 2.5 l 0.5044,-1.25 0.5044,-1.25 z m 13.4598,0.575 -1.0613,-1.825 -0.03,0.6682 -0.03,0.6682 0.6236,1.6249 0.6235,1.6249 0.4681,-0.4681 0.4682,-0.4681 -1.0613,-1.825 z m -18.4291,-4.056 -0.461,-1.769 -0.037,3 -0.037,3 0.4981,-1.231 0.498,-1.231 -0.461,-1.769 z m 15.9901,-3.4565 -0.5252,-1.3125 -0.079,1.9167 -0.079,1.9166 0.6042,-0.6041 0.6041,-0.6042 -0.5252,-1.3125 z m -13.8531,-5.3125 -0.029,-2 -0.8006,2.5 -0.8006,2.5 -0.029,1.5 -0.029,1.5 0.8594,-2 0.8594,-2 -0.029,-2 z m 12.2229,-0.05 -0.881,-2.9497 -0.086,1.6682 -0.086,1.6682 0.6236,1.6249 0.6235,1.6249 0.3434,-0.3434 0.3434,-0.3434 -0.881,-2.9497 z m -1.9482,-9.4497 -0.8856,-4.5 -0.1095,2.125 -0.1096,2.125 0.6719,3.3594 0.6719,3.3593 0.3232,-0.9843 0.3232,-0.9844 z m 14.0903,148.5 0.037,-3 0.4609,1.769 0.461,1.769 -0.498,1.231 -0.4981,1.231 0.037,-3 z m -31.1644,-4 v -1 l 0.9694,-1.5 0.9694,-1.5 v 1 1 l -0.9694,1.5 -0.9694,1.5 z m 32.0484,-3.0833 0.079,-1.9167 0.5252,1.3125 0.5252,1.3125 -0.6042,0.6042 -0.6041,0.6041 0.079,-1.9166 z m 1,-5 0.079,-1.9167 0.5252,1.3125 0.5252,1.3125 -0.6042,0.6042 -0.6041,0.6041 0.079,-1.9166 z m -31,-1 0.079,-1.9167 0.5252,1.3125 0.5252,1.3125 -0.6042,0.6042 -0.6041,0.6041 0.079,-1.9166 z m 1.153,-9.4167 v -3.5 l 0.4573,1.75 0.4573,1.75 -0.4573,1.75 -0.4573,1.75 z m 5.847,-0.5833 0.079,-1.9167 0.5252,1.3125 0.5252,1.3125 -0.6042,0.6042 -0.6041,0.6041 0.079,-1.9166 z m 27,-4 0.079,-1.9167 0.5252,1.3125 0.5252,1.3125 -0.6042,0.6042 -0.6041,0.6041 0.079,-1.9166 z m 1.0789,-7.4167 v -2.5 l 0.5044,1.25 0.5044,1.25 -0.5044,1.25 -0.5044,1.25 z m -36,-5 v -2.5 l 0.5044,1.25 0.5044,1.25 -0.5044,1.25 -0.5044,1.25 z m 34,-1 v -2.5 l 0.5044,1.25 0.5044,1.25 -0.5044,1.25 -0.5044,1.25 z m -31.0789,-2.5833 0.079,-1.9167 0.5252,1.3125 0.5252,1.3125 -0.6042,0.6042 -0.6041,0.6041 0.079,-1.9166 z m -21.4227,-2.9167 0.609,-4 0.3674,-0.4167 0.3673,-0.4166 -0.07,2.4166 -0.07,2.4167 -0.9061,2 -0.9061,2 0.609,-4 z m 49.5016,-3.5 v -2.5 l 0.5044,1.25 0.5044,1.25 -0.5044,1.25 -0.5044,1.25 z m -58.0789,-0.5833 0.079,-1.9167 0.5252,1.3125 0.5252,1.3125 -0.6042,0.6042 -0.6041,0.6041 0.079,-1.9166 z m 30.0789,-1.4167 v -2.5 l 0.5044,1.25 0.5044,1.25 -0.5044,1.25 -0.5044,1.25 z m -3.0789,-0.5833 0.079,-1.9167 0.5252,1.3125 0.5252,1.3125 -0.6042,0.6042 -0.6041,0.6041 0.079,-1.9166 z m -16.8066,-4.4167 v -4.5 l 0.4333,2.25 0.4334,2.25 -0.4334,2.25 -0.4333,2.25 z m 19.0638,-8 v -7.5 l 0.3923,3.75 0.3922,3.75 -0.3922,3.75 -0.3923,3.75 z m -28.0638,-1 v -4.5 l 0.4333,2.25 0.4334,2.25 -0.4334,2.25 -0.4333,2.25 z m 29.8066,0.4167 0.079,-1.9167 0.5252,1.3125 0.5252,1.3125 -0.6042,0.6042 -0.6041,0.6041 0.079,-1.9166 z m -18.9765,-3.1364 -0.1025,-3.2198 1.5954,-10.7802 1.5954,-10.7803 0.4547,-0.4667 0.4546,-0.4668 -0.6984,6.9668 -0.6985,6.9667 -1.2491,7.5 -1.2491,7.5 z m 50.9765,-7.8636 0.079,-1.9167 0.5252,1.3125 0.5252,1.3125 -0.6042,0.6042 -0.6041,0.6041 0.079,-1.9166 z m -1.3238,-6.9167 -0.4779,-2.5 h 0.8614 0.8613 v 2.5 2.5 h -0.3834 -0.3834 z m -33.5602,-1 0.037,-3 0.4609,1.769 0.461,1.769 -0.498,1.231 -0.4981,1.231 0.037,-3 z m -26,-1 0.037,-3 0.4609,1.769 0.461,1.769 -0.498,1.231 -0.4981,1.231 0.037,-3 z m 58.884,-6.0833 0.079,-1.9167 0.5252,1.3125 0.5252,1.3125 -0.6042,0.6042 -0.6041,0.6041 0.079,-1.9166 z m -58,-4 0.079,-1.9167 0.5252,1.3125 0.5252,1.3125 -0.6042,0.6042 -0.6041,0.6041 0.079,-1.9166 z m 9,0 0.079,-1.9167 0.5252,1.3125 0.5252,1.3125 -0.6042,0.6042 -0.6041,0.6041 0.079,-1.9166 z m 46.504,-4.2825 -0.7833,-1.2673 0.6002,-0.6001 0.6001,-0.6001 0.6042,0.6041 0.6041,0.6042 -0.421,1.2632 -0.4211,1.2633 z m -46.199,-4.5758 -0.5531,-1.4416 0.3916,-1.8084 0.3917,-1.8084 0.5197,3.25 0.5197,3.25 h -0.3582 -0.3582 z m 100.116,-3.5584 1.81,-2 h 0.5 0.5 l -1.81,2 -1.81,2 h -0.5 -0.5 z m -99.4297,-4.5833 0.07,-2.9167 0.8855,-2 0.8856,-2 -0.595,4.5 -0.595,4.5 -0.3608,0.4167 -0.3609,0.4166 0.07,-2.9166 z m 91.5532,1.0446 -0.6235,-1.6249 0.03,-0.6682 0.03,-0.6682 1.0612,1.825 1.0613,1.825 -0.4681,0.4681 -0.4681,0.4681 -0.6236,-1.6249 z m 13.893,-1.1244 3.0165,-2.8369 4.9835,-4.3609 4.9835,-4.3609 -1.2777,0.687 -1.2776,0.687 0.5289,-3.0023 0.5289,-3.0022 -3.7291,-3.0739 -3.7291,-3.0738 h 1.6054 1.6054 l 1.2449,1.5 1.2449,1.5 h 2.3185 2.3186 l 0.5604,-0.9068 0.5604,-0.9067 -2.0067,0.5248 -2.0068,0.5247 -1.4946,-1.2404 -1.4947,-1.2405 v -2.1776 -2.1775 l 1.2,-1.2 1.2,-1.2 h -1.141 -1.141 l -0.648,1.0485 -0.6481,1.0486 -1.1786,-0.9781 -1.1785,-0.9782 -2.4824,1.9074 -2.4824,1.9073 -1.357,0.022 -1.357,0.022 0.5956,1.552 0.5955,1.5519 -0.9679,-0.5982 -0.9679,-0.5982 -2.2706,1.1687 -2.2707,1.1686 1,-0.9998 1,-0.9999 10.5,-7.9143 10.5,-7.9144 9.0965,-5.6199 9.0965,-5.6198 7.9035,-3.9629 7.9035,-3.9628 9.7844,-3.6547 9.7843,-3.6547 7.5585,-1.5632 7.5585,-1.5631 1.9071,0.4987 1.9072,0.4988 v -0.9064 -0.9064 h 2.84 2.8401 l 7.6764,-1.9633 7.6765,-1.9633 4.4835,-3.0847 4.4835,-3.0848 0.03,0.7981 0.03,0.798 1.0311,-1.771 1.031,-1.771 1.1885,0.6813 1.1886,0.6814 -0.7413,-0.8184 -0.7414,-0.8183 1.1047,-1.331 1.1046,-1.331 1.1367,0.6493 1.1367,0.6494 -0.7413,-0.8184 -0.7414,-0.8183 1.1047,-1.331 1.1046,-1.331 1.0412,0.6435 1.0412,0.6435 -0.6555,-1.0606 -0.6555,-1.0605 4.8596,-4.0687 4.8596,-4.0686 0.8017,0.7247 0.8017,0.7247 -0.6141,-1.0797 -0.6141,-1.0798 4.7038,-3.58 4.7038,-3.58 12,-7.6874 12,-7.6875 9.5,-4.7795 9.5,-4.7795 8,-2.5747 8,-2.5747 8.2688,-1.6183 8.2689,-1.6183 1.7311,0.4537 1.7312,0.4537 -2.5,0.1313 -2.5,0.1313 1.5,0.9833 1.5,0.9833 -3.5,-0.5828 -3.5,-0.5828 1.0334,0.8342 1.0335,0.8342 -0.057,1.5 -0.057,1.5 1.2738,1.3214 1.2738,1.3215 v 1.8468 1.8467 l 0.6048,1.5761 0.6048,1.576 0.907,-0.5605 0.9069,-0.5605 0.6133,3.0662 0.6133,3.0664 1.625,0.07 1.625,0.07 -2,0.9476 -2,0.9476 6.8923,-0.4936 6.8924,-0.4935 -0.4013,0.4012 -0.4013,0.4013 -12.991,2.1091 -12.9911,2.1091 -7,2.066 -7,2.0661 -8.6622,4.4552 -8.6623,4.4551 -9.5877,6.4559 -9.5878,6.4558 v -0.4663 -0.4663 l -2.5084,2.5084 -2.5084,2.5084 -1.1461,-0.7084 -1.1461,-0.7083 0.6309,1.0208 0.6309,1.0209 -1.8075,1.6358 -1.8076,1.6359 -0.6688,-0.6689 -0.6689,-0.6688 v 1.2257 1.2256 l -1.1545,-0.7135 -1.1545,-0.7135 0.6273,1.0151 0.6274,1.0151 -7.8057,7.4025 -7.8057,7.4025 -5.4171,3.6868 -5.4172,3.6868 -1.5,0.3001 -1.5,0.3001 -0.6194,0.8477 -0.6193,0.8476 -2.63,0.1524 -2.6299,0.1523 -7e-4,0.809 -7e-4,0.809 -1,-0.618 -1,-0.618 v 0.9208 0.9209 l -10.75,1.7304 -10.75,1.7304 -7.3964,1.4159 -7.3964,1.4159 -9.1036,3.6118 -9.1036,3.6118 -10.5,5.3415 -10.5,5.3415 -10.8247,7.0505 -10.8247,7.0504 -8.1753,6.075 -8.1753,6.075 3.0165,-2.8369 z m 18.4182,-17.7583 1.1796,-1.4213 -2.0571,0.538 -2.0572,0.5379 v 0.8834 0.8834 h 0.8776 0.8775 z m -120.6046,14.0036 0.6699,-1.7458 v -1.4182 -1.4182 h 0.8613 0.8614 l -0.4808,2.5148 -0.4807,2.5147 -1.0505,0.6493 -1.0506,0.6493 z m -0.3301,-7.6412 v -1.059 l 0.9849,0.6087 0.985,0.6087 -0.4714,-3.2997 -0.4714,-3.2997 0.7857,2.5 0.7857,2.5 1.8447,-10.5 1.8447,-10.5 1.856,-5.4066 1.8561,-5.4065 -0.081,-0.5935 -0.081,-0.5934 -1.8928,4 -1.8928,4 -0.026,-0.929 -0.026,-0.929 1.1736,-3.2458 1.1737,-3.2458 1.7926,0.1351 1.7926,0.135 -0.5471,2.5397 -0.5472,2.5398 1.1464,-1.5 1.1464,-1.5 -0.6722,2.3736 -0.6721,2.3737 -0.3169,1.6263 -0.3168,1.6264 -0.092,1 -0.092,1 -0.8278,-1.3051 -0.8278,-1.3052 -1.5608,4.3052 -1.5608,4.3051 -0.5947,4.8793 -0.5947,4.8792 -1.1597,3.8708 -1.1597,3.8707 h -1.3417 -1.3417 z m 110,-0.334 v -0.393 l 1.5519,-0.5956 1.552,-0.5955 -0.611,0.9885 -0.6109,0.9886 h -0.941 -0.941 z m -1.2305,-4.6858 -1.6765,-2.9212 h 0.2732 0.2731 l 2.1427,2.4643 2.1426,2.4642 -0.7392,0.4569 -0.7393,0.4569 z m -100.7156,-2.4212 -0.024,-1 1.8326,-5.5 1.8327,-5.5 1.2682,-3.3011 1.2683,-3.301 0.3439,0.344 0.344,0.3439 -1.8776,5.9571 -1.8775,5.9571 -1.5429,3.5 -1.5429,3.5 -0.024,-1 z m 100.0621,-5.1682 -0.116,-1.1682 -0.6472,-1.8318 -0.6472,-1.8318 1.241,1.1438 1.241,1.1437 -0.4778,1.8563 -0.4778,1.8562 z m -91.5453,-18.3318 0.6541,-2.5 0.8876,-0.95 0.8876,-0.95 -0.035,0.95 -0.035,0.95 -1.5063,2.5 -1.5063,2.5 0.6542,-2.5 z m -8.4507,-9.75 -0.9793,-1.75 -0.8204,0.5 -0.8203,0.5 -0.3003,-6.3493 -0.3003,-6.3492 1.0727,-5.1669 1.0726,-5.1669 1.4777,-2.8481 1.4776,-2.8482 v -1.9793 -1.9794 l 2.0302,-0.5309 2.0302,-0.5309 -0.7802,-13.1254 -0.7802,-13.1255 0.023,-21.5 0.023,-21.5 2.2515,-5.3485 2.2515,-5.3485 2.5075,-3.2875 2.5075,-3.2875 3.772,-2.614 3.7721,-2.614 h 1.4462 1.4463 l -5.7367,5.2482 -5.7367,5.2482 -2.4734,5.0658 -2.4735,5.0658 -1.2006,7.2699 -1.2006,7.27 1.3063,27.8848 1.3064,27.8847 3.157,1.0419 3.1571,1.0419 3.0023,2.7376 3.0024,2.7376 -1.678,-1.29 -1.6779,-1.29 -0.5114,1.9557 -0.5114,1.9556 0.7434,0.8343 0.7434,0.8344 1.1409,5.9168 1.141,5.9167 v 5.399 5.399 l -1.0352,1.9342 -1.0352,1.9343 h -8.4151 -8.4152 l -0.9793,-1.75 z m 22.0379,-2.25 v -2.5 l 0.5044,1.25 0.5044,1.25 -0.5044,1.25 -0.5044,1.25 z m -28,-18 v -2.5 l 0.5044,1.25 0.5044,1.25 -0.5044,1.25 -0.5044,1.25 z m 339.5921,-42.6623 1.25,-0.5044 1.25,0.5044 1.25,0.5044 h -2.5 -2.5 z m 0.25,-17.3377 -1.0704,-2 h 0.5 0.5 l 1.0704,2 1.0704,2 h -0.5 -0.5 z m -12.731,-5.693 1.7691,-0.461 1.2309,0.498 1.231,0.4981 -3,-0.037 -3,-0.037 1.769,-0.461 z m 5.5435,-0.9901 1.3125,-0.5252 0.6042,0.6041 0.6041,0.6042 -1.9166,-0.079 -1.9167,-0.079 1.3125,-0.5252 z"
           inkscape:label="Gold" /><path
                style="display:inline;fill:#000000;fill-opacity:1;fill-rule:nonzero;stroke:url(#linearGradient4926);stroke-width:0.544729;stroke-opacity:1"
                d="m 1185.3018,1260.482 -2.1295,-2.1295 0.01,-1.75 0.01,-1.75 5.7418,-4.573 5.7418,-4.573 6,-4.553 6,-4.5529 10,-6.7347 10,-6.7347 15,-7.3445 15,-7.3445 7.7246,-2.5292 7.7246,-2.5293 13.6515,-2.0826 13.6514,-2.0826 7.124,-2.5489 7.1239,-2.549 6.5,-4.3466 6.5,-4.3467 4,-3.8427 4,-3.8428 7.3341,-6.6995 7.3341,-6.6995 12.1659,-8.1559 12.1659,-8.1559 10.007,-4.8003 10.0069,-4.8003 8.5831,-2.0384 8.5832,-2.0385 15.7626,-1.8087 15.7626,-1.8086 1.4802,2.2592 1.4803,2.2592 -0.6714,2.1152 -0.6713,2.1153 -4.9802,4.928 -4.9801,4.9281 -5.6815,4.345 -5.6814,4.345 -11.5,7.5357 -11.5,7.5357 -19.5,11.1967 -19.5,11.1967 -33,16.3291 -33,16.3291 -19.235,8.1458 -19.2349,8.1457 -14.8823,5.4179 -14.8822,5.418 -10.3828,3.1021 -10.3828,3.1021 -9.1205,0.5628 -9.1205,0.5629 -2.1295,-2.1295 z m -16.4105,-40.8795 -4.6313,-11.75 -10.1259,-26 -10.1259,-26 -0.6761,-0.7082 -0.6761,-0.7082 -13.1075,3.6128 -13.1075,3.6128 -4.5583,-1.8853 -4.5584,-1.8854 -0.7898,-9.5192 -0.7899,-9.5193 -0.036,-24.5 -0.036,-24.5 3.3485,-6.5 3.3484,-6.5 1.7585,-1.5 1.7585,-1.5 11.8931,-9.542 11.893,-9.5419 11.5,-9.0489 11.5,-9.0488 25.5464,-19.9735 25.5464,-19.97343 37.9536,-9.56176 37.9537,-9.56176 119.8464,-30.18322 119.8464,-30.18322 1.4205,1.80924 1.4204,1.80923 0.9746,1.6683 0.9746,1.66829 -2.8319,2.33171 -2.832,2.3317 -69.6127,54 -69.6127,54.00002 -0.047,0.7924 -0.047,0.7924 9.6512,16.7076 9.6512,16.7076 8.9474,15.5 8.9472,15.5 1.0141,1.2382 1.0142,1.2381 -1.3627,0.4181 -1.3626,0.4182 -10.7934,1.6774 -10.7934,1.6775 -9.2066,2.4387 -9.2066,2.4387 -12.0522,5.8921 -12.0523,5.8922 -14.9477,9.9212 -14.9478,9.9211 -10.5,9.7339 -10.5,9.7339 -4.239,2.9708 -4.239,2.9709 -4.261,1.5112 -4.261,1.5112 -13.5,2.0145 -13.5,2.0146 -10.4366,3.4684 -10.4366,3.4685 -12.0634,5.9173 -12.0634,5.9174 -12,7.9685 -12,7.9686 -11.5,9.0507 -11.5,9.0508 -0.5748,0.029 -0.5748,0.029 -4.6314,-11.75 z m -205.05387,-20.6224 -2.57224,-3.3724 1.20355,-1.5244 1.20356,-1.5244 26,-20.307 26,-20.307 23,-17.9882 23,-17.9882 21,-16.442 21,-16.4421 1.2502,-0.9886 1.2502,-0.9885 -1.5086,3.6105 -1.5086,3.6106 -1.0907,7.762 -1.0907,7.7621 1.1464,25 1.1463,25 0.4593,2.2 0.4592,2.2 -3.4907,1.6564 -3.4908,1.6565 -2.0973,3.3935 -2.0973,3.3936 h -0.4039 -0.4039 l -61.8832,17 -61.8832,17 h -1.01266 -1.01266 z"
                id="path21429"
                inkscape:label="Black"/></g></g>
        <text
                xml:space="preserve"
                style="font-style:normal;font-variant:normal;font-weight:normal;font-stretch:normal;font-size:266.667px;font-family:'Segoe UI';-inkscape-font-specification:'Segoe UI';white-space:pre;inline-size:202.123;display:inline;opacity:0.912676;fill:#ffffff;fill-opacity:1;stroke-width:0.170685;paint-order:markers fill stroke"
                x="182.22012"
                y="342.16254"
                id="text21437"
                transform="matrix(1.0742298,0.00794932,-0.00593067,1.2944065,-41.554862,76.647979)"
                inkscape:label="Test - S"><tspan
         x="182.22012"
         y="342.16254"
         id="tspan7720">S</tspan></text>
        <text
                xml:space="preserve"
                style="font-style:normal;font-variant:normal;font-weight:normal;font-stretch:normal;font-size:266.667px;font-family:'Segoe UI';-inkscape-font-specification:'Segoe UI';white-space:pre;inline-size:202.123;display:inline;opacity:0.912676;fill:#ffffff;fill-opacity:1;stroke-width:0.115581;paint-order:markers fill stroke"
                x="182.22012"
                y="342.16254"
                id="text21439"
                transform="matrix(1.577133,-0.17139505,0.21187575,1.8997643,-226.27366,-120.99819)"
                inkscape:label="Test = Z"/></g></svg>
